G04 #@! TF.GenerationSoftware,KiCad,Pcbnew,(6.0.8-1)-1*
G04 #@! TF.CreationDate,2022-11-23T20:34:25+02:00*
G04 #@! TF.ProjectId,Proto Board RF v2-0,50726f74-6f20-4426-9f61-726420524620,rev?*
G04 #@! TF.SameCoordinates,Original*
G04 #@! TF.FileFunction,Copper,L1,Top*
G04 #@! TF.FilePolarity,Positive*
%FSLAX46Y46*%
G04 Gerber Fmt 4.6, Leading zero omitted, Abs format (unit mm)*
G04 Created by KiCad (PCBNEW (6.0.8-1)-1) date 2022-11-23 20:34:25*
%MOMM*%
%LPD*%
G01*
G04 APERTURE LIST*
G04 #@! TA.AperFunction,ComponentPad*
%ADD10O,2.500000X1.600000*%
G04 #@! TD*
G04 #@! TA.AperFunction,ComponentPad*
%ADD11O,7.000000X3.500000*%
G04 #@! TD*
G04 #@! TA.AperFunction,ComponentPad*
%ADD12C,2.050000*%
G04 #@! TD*
G04 #@! TA.AperFunction,ComponentPad*
%ADD13C,2.250000*%
G04 #@! TD*
G04 #@! TA.AperFunction,SMDPad,CuDef*
%ADD14R,5.080000X2.290000*%
G04 #@! TD*
G04 #@! TA.AperFunction,SMDPad,CuDef*
%ADD15R,5.080000X2.420000*%
G04 #@! TD*
G04 #@! TA.AperFunction,SMDPad,CuDef*
%ADD16R,0.950000X0.460000*%
G04 #@! TD*
G04 #@! TA.AperFunction,ComponentPad*
%ADD17C,0.970000*%
G04 #@! TD*
G04 #@! TA.AperFunction,SMDPad,CuDef*
%ADD18R,4.000000X4.000000*%
G04 #@! TD*
G04 #@! TA.AperFunction,SMDPad,CuDef*
%ADD19R,49.720000X2.000000*%
G04 #@! TD*
G04 #@! TA.AperFunction,SMDPad,CuDef*
%ADD20R,103.060000X2.000000*%
G04 #@! TD*
G04 APERTURE END LIST*
D10*
X198120000Y-91440000D03*
D11*
X203200000Y-96520000D03*
X203200000Y-86360000D03*
D10*
X198120000Y-88900000D03*
X83820000Y-91440000D03*
X83820000Y-93980000D03*
D11*
X78740000Y-96520000D03*
X78740000Y-86360000D03*
D12*
X312420000Y-116840000D03*
D13*
X309880000Y-119380000D03*
X314960000Y-119380000D03*
X309880000Y-114300000D03*
X314960000Y-114300000D03*
D12*
X81280000Y-106680000D03*
D13*
X78740000Y-109220000D03*
X78740000Y-104140000D03*
X83820000Y-109220000D03*
X83820000Y-104140000D03*
D14*
X314140000Y-132080000D03*
D15*
X314140000Y-127700000D03*
D16*
X311150000Y-127700000D03*
D15*
X314140000Y-136460000D03*
D16*
X311150000Y-136460000D03*
D17*
X310700000Y-127700000D03*
X310700000Y-136460000D03*
D14*
X74480000Y-124460000D03*
D16*
X77470000Y-128840000D03*
D17*
X77920000Y-128840000D03*
D15*
X74480000Y-120080000D03*
D17*
X77920000Y-120080000D03*
D15*
X74480000Y-128840000D03*
D16*
X77470000Y-120080000D03*
D18*
X190500000Y-91440000D03*
X91440000Y-91440000D03*
X165100000Y-152400000D03*
X91440000Y-106680000D03*
X180340000Y-167640000D03*
X91440000Y-124460000D03*
X106680000Y-106680000D03*
X106680000Y-114300000D03*
X91440000Y-114300000D03*
X99060000Y-106680000D03*
X137160000Y-106680000D03*
X137160000Y-91440000D03*
X154940000Y-190500000D03*
X137160000Y-114300000D03*
X144780000Y-114300000D03*
X167640000Y-99060000D03*
X154940000Y-182880000D03*
X175260000Y-106680000D03*
X182880000Y-106680000D03*
X129540000Y-99060000D03*
X137160000Y-99060000D03*
X76200000Y-197890000D03*
X167640000Y-114300000D03*
X182880000Y-114300000D03*
X190500000Y-83820000D03*
X91440000Y-83820000D03*
X144780000Y-91440000D03*
X175260000Y-114300000D03*
X134020000Y-209620000D03*
X99060000Y-83820000D03*
X152400000Y-83820000D03*
X114300000Y-83820000D03*
X144780000Y-99060000D03*
X134020000Y-215670000D03*
X99060000Y-91440000D03*
X106680000Y-83820000D03*
X160020000Y-83820000D03*
X121920000Y-83820000D03*
X144780000Y-106680000D03*
X99060000Y-99060000D03*
X106680000Y-91440000D03*
X177570000Y-211190000D03*
X167640000Y-83820000D03*
X129540000Y-83820000D03*
X175260000Y-91440000D03*
X106680000Y-99060000D03*
X177570000Y-217240000D03*
X183620000Y-211190000D03*
X175260000Y-83820000D03*
X137160000Y-83820000D03*
X175260000Y-99060000D03*
X177570000Y-223290000D03*
X183620000Y-217240000D03*
X189670000Y-211190000D03*
X182880000Y-83820000D03*
X144780000Y-83820000D03*
X182880000Y-91440000D03*
X183620000Y-223290000D03*
X189670000Y-217240000D03*
X195720000Y-211190000D03*
X190500000Y-99060000D03*
X182880000Y-99060000D03*
X189670000Y-223290000D03*
X195720000Y-217240000D03*
X201770000Y-211190000D03*
X207820000Y-205140000D03*
X195720000Y-223290000D03*
X201770000Y-217240000D03*
X207820000Y-211190000D03*
X201770000Y-223290000D03*
X121920000Y-114300000D03*
X160020000Y-99060000D03*
X121920000Y-99060000D03*
X76200000Y-180340000D03*
X99060000Y-114300000D03*
X129540000Y-114300000D03*
X147320000Y-190500000D03*
X91440000Y-99060000D03*
X35560000Y-180340000D03*
X35560000Y-186390000D03*
X41610000Y-180340000D03*
X41610000Y-186390000D03*
X47660000Y-180340000D03*
X47660000Y-186390000D03*
X160020000Y-114300000D03*
X53710000Y-186390000D03*
D19*
X167640000Y-77470000D03*
X114300000Y-77470000D03*
D18*
X99060000Y-200660000D03*
X99060000Y-206710000D03*
X105110000Y-200660000D03*
X105110000Y-206710000D03*
X111160000Y-200660000D03*
X111160000Y-206710000D03*
X117210000Y-200660000D03*
X117210000Y-206710000D03*
D19*
X115570000Y-52070000D03*
X167640000Y-52070000D03*
D20*
X140970000Y-72390000D03*
X142240000Y-57150000D03*
M02*
