G04 #@! TF.GenerationSoftware,KiCad,Pcbnew,(6.0.8-1)-1*
G04 #@! TF.CreationDate,2022-11-23T20:34:25+02:00*
G04 #@! TF.ProjectId,Proto Board RF v2-0,50726f74-6f20-4426-9f61-726420524620,rev?*
G04 #@! TF.SameCoordinates,Original*
G04 #@! TF.FileFunction,Legend,Top*
G04 #@! TF.FilePolarity,Positive*
%FSLAX46Y46*%
G04 Gerber Fmt 4.6, Leading zero omitted, Abs format (unit mm)*
G04 Created by KiCad (PCBNEW (6.0.8-1)-1) date 2022-11-23 20:34:25*
%MOMM*%
%LPD*%
G01*
G04 APERTURE LIST*
%ADD10C,0.150000*%
%ADD11C,0.120000*%
G04 APERTURE END LIST*
D10*
X193572380Y-91773333D02*
X194286666Y-91773333D01*
X194429523Y-91820952D01*
X194524761Y-91916190D01*
X194572380Y-92059047D01*
X194572380Y-92154285D01*
X194572380Y-90773333D02*
X194572380Y-91344761D01*
X194572380Y-91059047D02*
X193572380Y-91059047D01*
X193715238Y-91154285D01*
X193810476Y-91249523D01*
X193858095Y-91344761D01*
X87272380Y-91773333D02*
X87986666Y-91773333D01*
X88129523Y-91820952D01*
X88224761Y-91916190D01*
X88272380Y-92059047D01*
X88272380Y-92154285D01*
X87367619Y-91344761D02*
X87320000Y-91297142D01*
X87272380Y-91201904D01*
X87272380Y-90963809D01*
X87320000Y-90868571D01*
X87367619Y-90820952D01*
X87462857Y-90773333D01*
X87558095Y-90773333D01*
X87700952Y-90820952D01*
X88272380Y-91392380D01*
X88272380Y-90773333D01*
X312086666Y-111542380D02*
X312086666Y-112256666D01*
X312039047Y-112399523D01*
X311943809Y-112494761D01*
X311800952Y-112542380D01*
X311705714Y-112542380D01*
X312467619Y-111542380D02*
X313086666Y-111542380D01*
X312753333Y-111923333D01*
X312896190Y-111923333D01*
X312991428Y-111970952D01*
X313039047Y-112018571D01*
X313086666Y-112113809D01*
X313086666Y-112351904D01*
X313039047Y-112447142D01*
X312991428Y-112494761D01*
X312896190Y-112542380D01*
X312610476Y-112542380D01*
X312515238Y-112494761D01*
X312467619Y-112447142D01*
X80946666Y-101382380D02*
X80946666Y-102096666D01*
X80899047Y-102239523D01*
X80803809Y-102334761D01*
X80660952Y-102382380D01*
X80565714Y-102382380D01*
X81851428Y-101715714D02*
X81851428Y-102382380D01*
X81613333Y-101334761D02*
X81375238Y-102049047D01*
X81994285Y-102049047D01*
X313586666Y-124532380D02*
X313586666Y-125246666D01*
X313539047Y-125389523D01*
X313443809Y-125484761D01*
X313300952Y-125532380D01*
X313205714Y-125532380D01*
X314539047Y-124532380D02*
X314062857Y-124532380D01*
X314015238Y-125008571D01*
X314062857Y-124960952D01*
X314158095Y-124913333D01*
X314396190Y-124913333D01*
X314491428Y-124960952D01*
X314539047Y-125008571D01*
X314586666Y-125103809D01*
X314586666Y-125341904D01*
X314539047Y-125437142D01*
X314491428Y-125484761D01*
X314396190Y-125532380D01*
X314158095Y-125532380D01*
X314062857Y-125484761D01*
X314015238Y-125437142D01*
X74366666Y-130912380D02*
X74366666Y-131626666D01*
X74319047Y-131769523D01*
X74223809Y-131864761D01*
X74080952Y-131912380D01*
X73985714Y-131912380D01*
X75271428Y-130912380D02*
X75080952Y-130912380D01*
X74985714Y-130960000D01*
X74938095Y-131007619D01*
X74842857Y-131150476D01*
X74795238Y-131340952D01*
X74795238Y-131721904D01*
X74842857Y-131817142D01*
X74890476Y-131864761D01*
X74985714Y-131912380D01*
X75176190Y-131912380D01*
X75271428Y-131864761D01*
X75319047Y-131817142D01*
X75366666Y-131721904D01*
X75366666Y-131483809D01*
X75319047Y-131388571D01*
X75271428Y-131340952D01*
X75176190Y-131293333D01*
X74985714Y-131293333D01*
X74890476Y-131340952D01*
X74842857Y-131388571D01*
X74795238Y-131483809D01*
X189238095Y-87994380D02*
X189809523Y-87994380D01*
X189523809Y-88994380D02*
X189523809Y-87994380D01*
X190142857Y-88994380D02*
X190142857Y-87994380D01*
X190523809Y-87994380D01*
X190619047Y-88042000D01*
X190666666Y-88089619D01*
X190714285Y-88184857D01*
X190714285Y-88327714D01*
X190666666Y-88422952D01*
X190619047Y-88470571D01*
X190523809Y-88518190D01*
X190142857Y-88518190D01*
X191047619Y-87994380D02*
X191666666Y-87994380D01*
X191333333Y-88375333D01*
X191476190Y-88375333D01*
X191571428Y-88422952D01*
X191619047Y-88470571D01*
X191666666Y-88565809D01*
X191666666Y-88803904D01*
X191619047Y-88899142D01*
X191571428Y-88946761D01*
X191476190Y-88994380D01*
X191190476Y-88994380D01*
X191095238Y-88946761D01*
X191047619Y-88899142D01*
X90178095Y-87994380D02*
X90749523Y-87994380D01*
X90463809Y-88994380D02*
X90463809Y-87994380D01*
X91082857Y-88994380D02*
X91082857Y-87994380D01*
X91463809Y-87994380D01*
X91559047Y-88042000D01*
X91606666Y-88089619D01*
X91654285Y-88184857D01*
X91654285Y-88327714D01*
X91606666Y-88422952D01*
X91559047Y-88470571D01*
X91463809Y-88518190D01*
X91082857Y-88518190D01*
X92511428Y-88327714D02*
X92511428Y-88994380D01*
X92273333Y-87946761D02*
X92035238Y-88661047D01*
X92654285Y-88661047D01*
X163838095Y-148954380D02*
X164409523Y-148954380D01*
X164123809Y-149954380D02*
X164123809Y-148954380D01*
X164742857Y-149954380D02*
X164742857Y-148954380D01*
X165123809Y-148954380D01*
X165219047Y-149002000D01*
X165266666Y-149049619D01*
X165314285Y-149144857D01*
X165314285Y-149287714D01*
X165266666Y-149382952D01*
X165219047Y-149430571D01*
X165123809Y-149478190D01*
X164742857Y-149478190D01*
X166171428Y-148954380D02*
X165980952Y-148954380D01*
X165885714Y-149002000D01*
X165838095Y-149049619D01*
X165742857Y-149192476D01*
X165695238Y-149382952D01*
X165695238Y-149763904D01*
X165742857Y-149859142D01*
X165790476Y-149906761D01*
X165885714Y-149954380D01*
X166076190Y-149954380D01*
X166171428Y-149906761D01*
X166219047Y-149859142D01*
X166266666Y-149763904D01*
X166266666Y-149525809D01*
X166219047Y-149430571D01*
X166171428Y-149382952D01*
X166076190Y-149335333D01*
X165885714Y-149335333D01*
X165790476Y-149382952D01*
X165742857Y-149430571D01*
X165695238Y-149525809D01*
X90178095Y-103234380D02*
X90749523Y-103234380D01*
X90463809Y-104234380D02*
X90463809Y-103234380D01*
X91082857Y-104234380D02*
X91082857Y-103234380D01*
X91463809Y-103234380D01*
X91559047Y-103282000D01*
X91606666Y-103329619D01*
X91654285Y-103424857D01*
X91654285Y-103567714D01*
X91606666Y-103662952D01*
X91559047Y-103710571D01*
X91463809Y-103758190D01*
X91082857Y-103758190D01*
X91987619Y-103234380D02*
X92654285Y-103234380D01*
X92225714Y-104234380D01*
X179078095Y-164194380D02*
X179649523Y-164194380D01*
X179363809Y-165194380D02*
X179363809Y-164194380D01*
X179982857Y-165194380D02*
X179982857Y-164194380D01*
X180363809Y-164194380D01*
X180459047Y-164242000D01*
X180506666Y-164289619D01*
X180554285Y-164384857D01*
X180554285Y-164527714D01*
X180506666Y-164622952D01*
X180459047Y-164670571D01*
X180363809Y-164718190D01*
X179982857Y-164718190D01*
X181125714Y-164622952D02*
X181030476Y-164575333D01*
X180982857Y-164527714D01*
X180935238Y-164432476D01*
X180935238Y-164384857D01*
X180982857Y-164289619D01*
X181030476Y-164242000D01*
X181125714Y-164194380D01*
X181316190Y-164194380D01*
X181411428Y-164242000D01*
X181459047Y-164289619D01*
X181506666Y-164384857D01*
X181506666Y-164432476D01*
X181459047Y-164527714D01*
X181411428Y-164575333D01*
X181316190Y-164622952D01*
X181125714Y-164622952D01*
X181030476Y-164670571D01*
X180982857Y-164718190D01*
X180935238Y-164813428D01*
X180935238Y-165003904D01*
X180982857Y-165099142D01*
X181030476Y-165146761D01*
X181125714Y-165194380D01*
X181316190Y-165194380D01*
X181411428Y-165146761D01*
X181459047Y-165099142D01*
X181506666Y-165003904D01*
X181506666Y-164813428D01*
X181459047Y-164718190D01*
X181411428Y-164670571D01*
X181316190Y-164622952D01*
X90178095Y-121014380D02*
X90749523Y-121014380D01*
X90463809Y-122014380D02*
X90463809Y-121014380D01*
X91082857Y-122014380D02*
X91082857Y-121014380D01*
X91463809Y-121014380D01*
X91559047Y-121062000D01*
X91606666Y-121109619D01*
X91654285Y-121204857D01*
X91654285Y-121347714D01*
X91606666Y-121442952D01*
X91559047Y-121490571D01*
X91463809Y-121538190D01*
X91082857Y-121538190D01*
X92130476Y-122014380D02*
X92320952Y-122014380D01*
X92416190Y-121966761D01*
X92463809Y-121919142D01*
X92559047Y-121776285D01*
X92606666Y-121585809D01*
X92606666Y-121204857D01*
X92559047Y-121109619D01*
X92511428Y-121062000D01*
X92416190Y-121014380D01*
X92225714Y-121014380D01*
X92130476Y-121062000D01*
X92082857Y-121109619D01*
X92035238Y-121204857D01*
X92035238Y-121442952D01*
X92082857Y-121538190D01*
X92130476Y-121585809D01*
X92225714Y-121633428D01*
X92416190Y-121633428D01*
X92511428Y-121585809D01*
X92559047Y-121538190D01*
X92606666Y-121442952D01*
X104941904Y-103234380D02*
X105513333Y-103234380D01*
X105227619Y-104234380D02*
X105227619Y-103234380D01*
X105846666Y-104234380D02*
X105846666Y-103234380D01*
X106227619Y-103234380D01*
X106322857Y-103282000D01*
X106370476Y-103329619D01*
X106418095Y-103424857D01*
X106418095Y-103567714D01*
X106370476Y-103662952D01*
X106322857Y-103710571D01*
X106227619Y-103758190D01*
X105846666Y-103758190D01*
X107370476Y-104234380D02*
X106799047Y-104234380D01*
X107084761Y-104234380D02*
X107084761Y-103234380D01*
X106989523Y-103377238D01*
X106894285Y-103472476D01*
X106799047Y-103520095D01*
X107846666Y-104234380D02*
X108037142Y-104234380D01*
X108132380Y-104186761D01*
X108180000Y-104139142D01*
X108275238Y-103996285D01*
X108322857Y-103805809D01*
X108322857Y-103424857D01*
X108275238Y-103329619D01*
X108227619Y-103282000D01*
X108132380Y-103234380D01*
X107941904Y-103234380D01*
X107846666Y-103282000D01*
X107799047Y-103329619D01*
X107751428Y-103424857D01*
X107751428Y-103662952D01*
X107799047Y-103758190D01*
X107846666Y-103805809D01*
X107941904Y-103853428D01*
X108132380Y-103853428D01*
X108227619Y-103805809D01*
X108275238Y-103758190D01*
X108322857Y-103662952D01*
X104941904Y-110854380D02*
X105513333Y-110854380D01*
X105227619Y-111854380D02*
X105227619Y-110854380D01*
X105846666Y-111854380D02*
X105846666Y-110854380D01*
X106227619Y-110854380D01*
X106322857Y-110902000D01*
X106370476Y-110949619D01*
X106418095Y-111044857D01*
X106418095Y-111187714D01*
X106370476Y-111282952D01*
X106322857Y-111330571D01*
X106227619Y-111378190D01*
X105846666Y-111378190D01*
X106799047Y-110949619D02*
X106846666Y-110902000D01*
X106941904Y-110854380D01*
X107180000Y-110854380D01*
X107275238Y-110902000D01*
X107322857Y-110949619D01*
X107370476Y-111044857D01*
X107370476Y-111140095D01*
X107322857Y-111282952D01*
X106751428Y-111854380D01*
X107370476Y-111854380D01*
X107989523Y-110854380D02*
X108084761Y-110854380D01*
X108180000Y-110902000D01*
X108227619Y-110949619D01*
X108275238Y-111044857D01*
X108322857Y-111235333D01*
X108322857Y-111473428D01*
X108275238Y-111663904D01*
X108227619Y-111759142D01*
X108180000Y-111806761D01*
X108084761Y-111854380D01*
X107989523Y-111854380D01*
X107894285Y-111806761D01*
X107846666Y-111759142D01*
X107799047Y-111663904D01*
X107751428Y-111473428D01*
X107751428Y-111235333D01*
X107799047Y-111044857D01*
X107846666Y-110949619D01*
X107894285Y-110902000D01*
X107989523Y-110854380D01*
X89701904Y-110854380D02*
X90273333Y-110854380D01*
X89987619Y-111854380D02*
X89987619Y-110854380D01*
X90606666Y-111854380D02*
X90606666Y-110854380D01*
X90987619Y-110854380D01*
X91082857Y-110902000D01*
X91130476Y-110949619D01*
X91178095Y-111044857D01*
X91178095Y-111187714D01*
X91130476Y-111282952D01*
X91082857Y-111330571D01*
X90987619Y-111378190D01*
X90606666Y-111378190D01*
X91559047Y-110949619D02*
X91606666Y-110902000D01*
X91701904Y-110854380D01*
X91940000Y-110854380D01*
X92035238Y-110902000D01*
X92082857Y-110949619D01*
X92130476Y-111044857D01*
X92130476Y-111140095D01*
X92082857Y-111282952D01*
X91511428Y-111854380D01*
X92130476Y-111854380D01*
X93082857Y-111854380D02*
X92511428Y-111854380D01*
X92797142Y-111854380D02*
X92797142Y-110854380D01*
X92701904Y-110997238D01*
X92606666Y-111092476D01*
X92511428Y-111140095D01*
X97321904Y-103234380D02*
X97893333Y-103234380D01*
X97607619Y-104234380D02*
X97607619Y-103234380D01*
X98226666Y-104234380D02*
X98226666Y-103234380D01*
X98607619Y-103234380D01*
X98702857Y-103282000D01*
X98750476Y-103329619D01*
X98798095Y-103424857D01*
X98798095Y-103567714D01*
X98750476Y-103662952D01*
X98702857Y-103710571D01*
X98607619Y-103758190D01*
X98226666Y-103758190D01*
X99179047Y-103329619D02*
X99226666Y-103282000D01*
X99321904Y-103234380D01*
X99560000Y-103234380D01*
X99655238Y-103282000D01*
X99702857Y-103329619D01*
X99750476Y-103424857D01*
X99750476Y-103520095D01*
X99702857Y-103662952D01*
X99131428Y-104234380D01*
X99750476Y-104234380D01*
X100131428Y-103329619D02*
X100179047Y-103282000D01*
X100274285Y-103234380D01*
X100512380Y-103234380D01*
X100607619Y-103282000D01*
X100655238Y-103329619D01*
X100702857Y-103424857D01*
X100702857Y-103520095D01*
X100655238Y-103662952D01*
X100083809Y-104234380D01*
X100702857Y-104234380D01*
X135421904Y-103234380D02*
X135993333Y-103234380D01*
X135707619Y-104234380D02*
X135707619Y-103234380D01*
X136326666Y-104234380D02*
X136326666Y-103234380D01*
X136707619Y-103234380D01*
X136802857Y-103282000D01*
X136850476Y-103329619D01*
X136898095Y-103424857D01*
X136898095Y-103567714D01*
X136850476Y-103662952D01*
X136802857Y-103710571D01*
X136707619Y-103758190D01*
X136326666Y-103758190D01*
X137279047Y-103329619D02*
X137326666Y-103282000D01*
X137421904Y-103234380D01*
X137660000Y-103234380D01*
X137755238Y-103282000D01*
X137802857Y-103329619D01*
X137850476Y-103424857D01*
X137850476Y-103520095D01*
X137802857Y-103662952D01*
X137231428Y-104234380D01*
X137850476Y-104234380D01*
X138183809Y-103234380D02*
X138802857Y-103234380D01*
X138469523Y-103615333D01*
X138612380Y-103615333D01*
X138707619Y-103662952D01*
X138755238Y-103710571D01*
X138802857Y-103805809D01*
X138802857Y-104043904D01*
X138755238Y-104139142D01*
X138707619Y-104186761D01*
X138612380Y-104234380D01*
X138326666Y-104234380D01*
X138231428Y-104186761D01*
X138183809Y-104139142D01*
X135421904Y-87994380D02*
X135993333Y-87994380D01*
X135707619Y-88994380D02*
X135707619Y-87994380D01*
X136326666Y-88994380D02*
X136326666Y-87994380D01*
X136707619Y-87994380D01*
X136802857Y-88042000D01*
X136850476Y-88089619D01*
X136898095Y-88184857D01*
X136898095Y-88327714D01*
X136850476Y-88422952D01*
X136802857Y-88470571D01*
X136707619Y-88518190D01*
X136326666Y-88518190D01*
X137279047Y-88089619D02*
X137326666Y-88042000D01*
X137421904Y-87994380D01*
X137660000Y-87994380D01*
X137755238Y-88042000D01*
X137802857Y-88089619D01*
X137850476Y-88184857D01*
X137850476Y-88280095D01*
X137802857Y-88422952D01*
X137231428Y-88994380D01*
X137850476Y-88994380D01*
X138707619Y-88327714D02*
X138707619Y-88994380D01*
X138469523Y-87946761D02*
X138231428Y-88661047D01*
X138850476Y-88661047D01*
X153201904Y-187054380D02*
X153773333Y-187054380D01*
X153487619Y-188054380D02*
X153487619Y-187054380D01*
X154106666Y-188054380D02*
X154106666Y-187054380D01*
X154487619Y-187054380D01*
X154582857Y-187102000D01*
X154630476Y-187149619D01*
X154678095Y-187244857D01*
X154678095Y-187387714D01*
X154630476Y-187482952D01*
X154582857Y-187530571D01*
X154487619Y-187578190D01*
X154106666Y-187578190D01*
X155059047Y-187149619D02*
X155106666Y-187102000D01*
X155201904Y-187054380D01*
X155440000Y-187054380D01*
X155535238Y-187102000D01*
X155582857Y-187149619D01*
X155630476Y-187244857D01*
X155630476Y-187340095D01*
X155582857Y-187482952D01*
X155011428Y-188054380D01*
X155630476Y-188054380D01*
X156535238Y-187054380D02*
X156059047Y-187054380D01*
X156011428Y-187530571D01*
X156059047Y-187482952D01*
X156154285Y-187435333D01*
X156392380Y-187435333D01*
X156487619Y-187482952D01*
X156535238Y-187530571D01*
X156582857Y-187625809D01*
X156582857Y-187863904D01*
X156535238Y-187959142D01*
X156487619Y-188006761D01*
X156392380Y-188054380D01*
X156154285Y-188054380D01*
X156059047Y-188006761D01*
X156011428Y-187959142D01*
X135421904Y-110854380D02*
X135993333Y-110854380D01*
X135707619Y-111854380D02*
X135707619Y-110854380D01*
X136326666Y-111854380D02*
X136326666Y-110854380D01*
X136707619Y-110854380D01*
X136802857Y-110902000D01*
X136850476Y-110949619D01*
X136898095Y-111044857D01*
X136898095Y-111187714D01*
X136850476Y-111282952D01*
X136802857Y-111330571D01*
X136707619Y-111378190D01*
X136326666Y-111378190D01*
X137279047Y-110949619D02*
X137326666Y-110902000D01*
X137421904Y-110854380D01*
X137660000Y-110854380D01*
X137755238Y-110902000D01*
X137802857Y-110949619D01*
X137850476Y-111044857D01*
X137850476Y-111140095D01*
X137802857Y-111282952D01*
X137231428Y-111854380D01*
X137850476Y-111854380D01*
X138707619Y-110854380D02*
X138517142Y-110854380D01*
X138421904Y-110902000D01*
X138374285Y-110949619D01*
X138279047Y-111092476D01*
X138231428Y-111282952D01*
X138231428Y-111663904D01*
X138279047Y-111759142D01*
X138326666Y-111806761D01*
X138421904Y-111854380D01*
X138612380Y-111854380D01*
X138707619Y-111806761D01*
X138755238Y-111759142D01*
X138802857Y-111663904D01*
X138802857Y-111425809D01*
X138755238Y-111330571D01*
X138707619Y-111282952D01*
X138612380Y-111235333D01*
X138421904Y-111235333D01*
X138326666Y-111282952D01*
X138279047Y-111330571D01*
X138231428Y-111425809D01*
X143041904Y-110854380D02*
X143613333Y-110854380D01*
X143327619Y-111854380D02*
X143327619Y-110854380D01*
X143946666Y-111854380D02*
X143946666Y-110854380D01*
X144327619Y-110854380D01*
X144422857Y-110902000D01*
X144470476Y-110949619D01*
X144518095Y-111044857D01*
X144518095Y-111187714D01*
X144470476Y-111282952D01*
X144422857Y-111330571D01*
X144327619Y-111378190D01*
X143946666Y-111378190D01*
X144899047Y-110949619D02*
X144946666Y-110902000D01*
X145041904Y-110854380D01*
X145280000Y-110854380D01*
X145375238Y-110902000D01*
X145422857Y-110949619D01*
X145470476Y-111044857D01*
X145470476Y-111140095D01*
X145422857Y-111282952D01*
X144851428Y-111854380D01*
X145470476Y-111854380D01*
X145803809Y-110854380D02*
X146470476Y-110854380D01*
X146041904Y-111854380D01*
X165901904Y-95614380D02*
X166473333Y-95614380D01*
X166187619Y-96614380D02*
X166187619Y-95614380D01*
X166806666Y-96614380D02*
X166806666Y-95614380D01*
X167187619Y-95614380D01*
X167282857Y-95662000D01*
X167330476Y-95709619D01*
X167378095Y-95804857D01*
X167378095Y-95947714D01*
X167330476Y-96042952D01*
X167282857Y-96090571D01*
X167187619Y-96138190D01*
X166806666Y-96138190D01*
X167759047Y-95709619D02*
X167806666Y-95662000D01*
X167901904Y-95614380D01*
X168140000Y-95614380D01*
X168235238Y-95662000D01*
X168282857Y-95709619D01*
X168330476Y-95804857D01*
X168330476Y-95900095D01*
X168282857Y-96042952D01*
X167711428Y-96614380D01*
X168330476Y-96614380D01*
X168901904Y-96042952D02*
X168806666Y-95995333D01*
X168759047Y-95947714D01*
X168711428Y-95852476D01*
X168711428Y-95804857D01*
X168759047Y-95709619D01*
X168806666Y-95662000D01*
X168901904Y-95614380D01*
X169092380Y-95614380D01*
X169187619Y-95662000D01*
X169235238Y-95709619D01*
X169282857Y-95804857D01*
X169282857Y-95852476D01*
X169235238Y-95947714D01*
X169187619Y-95995333D01*
X169092380Y-96042952D01*
X168901904Y-96042952D01*
X168806666Y-96090571D01*
X168759047Y-96138190D01*
X168711428Y-96233428D01*
X168711428Y-96423904D01*
X168759047Y-96519142D01*
X168806666Y-96566761D01*
X168901904Y-96614380D01*
X169092380Y-96614380D01*
X169187619Y-96566761D01*
X169235238Y-96519142D01*
X169282857Y-96423904D01*
X169282857Y-96233428D01*
X169235238Y-96138190D01*
X169187619Y-96090571D01*
X169092380Y-96042952D01*
X153201904Y-179434380D02*
X153773333Y-179434380D01*
X153487619Y-180434380D02*
X153487619Y-179434380D01*
X154106666Y-180434380D02*
X154106666Y-179434380D01*
X154487619Y-179434380D01*
X154582857Y-179482000D01*
X154630476Y-179529619D01*
X154678095Y-179624857D01*
X154678095Y-179767714D01*
X154630476Y-179862952D01*
X154582857Y-179910571D01*
X154487619Y-179958190D01*
X154106666Y-179958190D01*
X155059047Y-179529619D02*
X155106666Y-179482000D01*
X155201904Y-179434380D01*
X155440000Y-179434380D01*
X155535238Y-179482000D01*
X155582857Y-179529619D01*
X155630476Y-179624857D01*
X155630476Y-179720095D01*
X155582857Y-179862952D01*
X155011428Y-180434380D01*
X155630476Y-180434380D01*
X156106666Y-180434380D02*
X156297142Y-180434380D01*
X156392380Y-180386761D01*
X156440000Y-180339142D01*
X156535238Y-180196285D01*
X156582857Y-180005809D01*
X156582857Y-179624857D01*
X156535238Y-179529619D01*
X156487619Y-179482000D01*
X156392380Y-179434380D01*
X156201904Y-179434380D01*
X156106666Y-179482000D01*
X156059047Y-179529619D01*
X156011428Y-179624857D01*
X156011428Y-179862952D01*
X156059047Y-179958190D01*
X156106666Y-180005809D01*
X156201904Y-180053428D01*
X156392380Y-180053428D01*
X156487619Y-180005809D01*
X156535238Y-179958190D01*
X156582857Y-179862952D01*
X173521904Y-103234380D02*
X174093333Y-103234380D01*
X173807619Y-104234380D02*
X173807619Y-103234380D01*
X174426666Y-104234380D02*
X174426666Y-103234380D01*
X174807619Y-103234380D01*
X174902857Y-103282000D01*
X174950476Y-103329619D01*
X174998095Y-103424857D01*
X174998095Y-103567714D01*
X174950476Y-103662952D01*
X174902857Y-103710571D01*
X174807619Y-103758190D01*
X174426666Y-103758190D01*
X175331428Y-103234380D02*
X175950476Y-103234380D01*
X175617142Y-103615333D01*
X175760000Y-103615333D01*
X175855238Y-103662952D01*
X175902857Y-103710571D01*
X175950476Y-103805809D01*
X175950476Y-104043904D01*
X175902857Y-104139142D01*
X175855238Y-104186761D01*
X175760000Y-104234380D01*
X175474285Y-104234380D01*
X175379047Y-104186761D01*
X175331428Y-104139142D01*
X176569523Y-103234380D02*
X176664761Y-103234380D01*
X176760000Y-103282000D01*
X176807619Y-103329619D01*
X176855238Y-103424857D01*
X176902857Y-103615333D01*
X176902857Y-103853428D01*
X176855238Y-104043904D01*
X176807619Y-104139142D01*
X176760000Y-104186761D01*
X176664761Y-104234380D01*
X176569523Y-104234380D01*
X176474285Y-104186761D01*
X176426666Y-104139142D01*
X176379047Y-104043904D01*
X176331428Y-103853428D01*
X176331428Y-103615333D01*
X176379047Y-103424857D01*
X176426666Y-103329619D01*
X176474285Y-103282000D01*
X176569523Y-103234380D01*
X181141904Y-103234380D02*
X181713333Y-103234380D01*
X181427619Y-104234380D02*
X181427619Y-103234380D01*
X182046666Y-104234380D02*
X182046666Y-103234380D01*
X182427619Y-103234380D01*
X182522857Y-103282000D01*
X182570476Y-103329619D01*
X182618095Y-103424857D01*
X182618095Y-103567714D01*
X182570476Y-103662952D01*
X182522857Y-103710571D01*
X182427619Y-103758190D01*
X182046666Y-103758190D01*
X182951428Y-103234380D02*
X183570476Y-103234380D01*
X183237142Y-103615333D01*
X183380000Y-103615333D01*
X183475238Y-103662952D01*
X183522857Y-103710571D01*
X183570476Y-103805809D01*
X183570476Y-104043904D01*
X183522857Y-104139142D01*
X183475238Y-104186761D01*
X183380000Y-104234380D01*
X183094285Y-104234380D01*
X182999047Y-104186761D01*
X182951428Y-104139142D01*
X184522857Y-104234380D02*
X183951428Y-104234380D01*
X184237142Y-104234380D02*
X184237142Y-103234380D01*
X184141904Y-103377238D01*
X184046666Y-103472476D01*
X183951428Y-103520095D01*
X127801904Y-95614380D02*
X128373333Y-95614380D01*
X128087619Y-96614380D02*
X128087619Y-95614380D01*
X128706666Y-96614380D02*
X128706666Y-95614380D01*
X129087619Y-95614380D01*
X129182857Y-95662000D01*
X129230476Y-95709619D01*
X129278095Y-95804857D01*
X129278095Y-95947714D01*
X129230476Y-96042952D01*
X129182857Y-96090571D01*
X129087619Y-96138190D01*
X128706666Y-96138190D01*
X129611428Y-95614380D02*
X130230476Y-95614380D01*
X129897142Y-95995333D01*
X130040000Y-95995333D01*
X130135238Y-96042952D01*
X130182857Y-96090571D01*
X130230476Y-96185809D01*
X130230476Y-96423904D01*
X130182857Y-96519142D01*
X130135238Y-96566761D01*
X130040000Y-96614380D01*
X129754285Y-96614380D01*
X129659047Y-96566761D01*
X129611428Y-96519142D01*
X130611428Y-95709619D02*
X130659047Y-95662000D01*
X130754285Y-95614380D01*
X130992380Y-95614380D01*
X131087619Y-95662000D01*
X131135238Y-95709619D01*
X131182857Y-95804857D01*
X131182857Y-95900095D01*
X131135238Y-96042952D01*
X130563809Y-96614380D01*
X131182857Y-96614380D01*
X135421904Y-95614380D02*
X135993333Y-95614380D01*
X135707619Y-96614380D02*
X135707619Y-95614380D01*
X136326666Y-96614380D02*
X136326666Y-95614380D01*
X136707619Y-95614380D01*
X136802857Y-95662000D01*
X136850476Y-95709619D01*
X136898095Y-95804857D01*
X136898095Y-95947714D01*
X136850476Y-96042952D01*
X136802857Y-96090571D01*
X136707619Y-96138190D01*
X136326666Y-96138190D01*
X137231428Y-95614380D02*
X137850476Y-95614380D01*
X137517142Y-95995333D01*
X137660000Y-95995333D01*
X137755238Y-96042952D01*
X137802857Y-96090571D01*
X137850476Y-96185809D01*
X137850476Y-96423904D01*
X137802857Y-96519142D01*
X137755238Y-96566761D01*
X137660000Y-96614380D01*
X137374285Y-96614380D01*
X137279047Y-96566761D01*
X137231428Y-96519142D01*
X138183809Y-95614380D02*
X138802857Y-95614380D01*
X138469523Y-95995333D01*
X138612380Y-95995333D01*
X138707619Y-96042952D01*
X138755238Y-96090571D01*
X138802857Y-96185809D01*
X138802857Y-96423904D01*
X138755238Y-96519142D01*
X138707619Y-96566761D01*
X138612380Y-96614380D01*
X138326666Y-96614380D01*
X138231428Y-96566761D01*
X138183809Y-96519142D01*
X74461904Y-194444380D02*
X75033333Y-194444380D01*
X74747619Y-195444380D02*
X74747619Y-194444380D01*
X75366666Y-195444380D02*
X75366666Y-194444380D01*
X75747619Y-194444380D01*
X75842857Y-194492000D01*
X75890476Y-194539619D01*
X75938095Y-194634857D01*
X75938095Y-194777714D01*
X75890476Y-194872952D01*
X75842857Y-194920571D01*
X75747619Y-194968190D01*
X75366666Y-194968190D01*
X76271428Y-194444380D02*
X76890476Y-194444380D01*
X76557142Y-194825333D01*
X76700000Y-194825333D01*
X76795238Y-194872952D01*
X76842857Y-194920571D01*
X76890476Y-195015809D01*
X76890476Y-195253904D01*
X76842857Y-195349142D01*
X76795238Y-195396761D01*
X76700000Y-195444380D01*
X76414285Y-195444380D01*
X76319047Y-195396761D01*
X76271428Y-195349142D01*
X77747619Y-194777714D02*
X77747619Y-195444380D01*
X77509523Y-194396761D02*
X77271428Y-195111047D01*
X77890476Y-195111047D01*
X165901904Y-110854380D02*
X166473333Y-110854380D01*
X166187619Y-111854380D02*
X166187619Y-110854380D01*
X166806666Y-111854380D02*
X166806666Y-110854380D01*
X167187619Y-110854380D01*
X167282857Y-110902000D01*
X167330476Y-110949619D01*
X167378095Y-111044857D01*
X167378095Y-111187714D01*
X167330476Y-111282952D01*
X167282857Y-111330571D01*
X167187619Y-111378190D01*
X166806666Y-111378190D01*
X167711428Y-110854380D02*
X168330476Y-110854380D01*
X167997142Y-111235333D01*
X168140000Y-111235333D01*
X168235238Y-111282952D01*
X168282857Y-111330571D01*
X168330476Y-111425809D01*
X168330476Y-111663904D01*
X168282857Y-111759142D01*
X168235238Y-111806761D01*
X168140000Y-111854380D01*
X167854285Y-111854380D01*
X167759047Y-111806761D01*
X167711428Y-111759142D01*
X169235238Y-110854380D02*
X168759047Y-110854380D01*
X168711428Y-111330571D01*
X168759047Y-111282952D01*
X168854285Y-111235333D01*
X169092380Y-111235333D01*
X169187619Y-111282952D01*
X169235238Y-111330571D01*
X169282857Y-111425809D01*
X169282857Y-111663904D01*
X169235238Y-111759142D01*
X169187619Y-111806761D01*
X169092380Y-111854380D01*
X168854285Y-111854380D01*
X168759047Y-111806761D01*
X168711428Y-111759142D01*
X181141904Y-110854380D02*
X181713333Y-110854380D01*
X181427619Y-111854380D02*
X181427619Y-110854380D01*
X182046666Y-111854380D02*
X182046666Y-110854380D01*
X182427619Y-110854380D01*
X182522857Y-110902000D01*
X182570476Y-110949619D01*
X182618095Y-111044857D01*
X182618095Y-111187714D01*
X182570476Y-111282952D01*
X182522857Y-111330571D01*
X182427619Y-111378190D01*
X182046666Y-111378190D01*
X182951428Y-110854380D02*
X183570476Y-110854380D01*
X183237142Y-111235333D01*
X183380000Y-111235333D01*
X183475238Y-111282952D01*
X183522857Y-111330571D01*
X183570476Y-111425809D01*
X183570476Y-111663904D01*
X183522857Y-111759142D01*
X183475238Y-111806761D01*
X183380000Y-111854380D01*
X183094285Y-111854380D01*
X182999047Y-111806761D01*
X182951428Y-111759142D01*
X184427619Y-110854380D02*
X184237142Y-110854380D01*
X184141904Y-110902000D01*
X184094285Y-110949619D01*
X183999047Y-111092476D01*
X183951428Y-111282952D01*
X183951428Y-111663904D01*
X183999047Y-111759142D01*
X184046666Y-111806761D01*
X184141904Y-111854380D01*
X184332380Y-111854380D01*
X184427619Y-111806761D01*
X184475238Y-111759142D01*
X184522857Y-111663904D01*
X184522857Y-111425809D01*
X184475238Y-111330571D01*
X184427619Y-111282952D01*
X184332380Y-111235333D01*
X184141904Y-111235333D01*
X184046666Y-111282952D01*
X183999047Y-111330571D01*
X183951428Y-111425809D01*
X188761904Y-80374380D02*
X189333333Y-80374380D01*
X189047619Y-81374380D02*
X189047619Y-80374380D01*
X189666666Y-81374380D02*
X189666666Y-80374380D01*
X190047619Y-80374380D01*
X190142857Y-80422000D01*
X190190476Y-80469619D01*
X190238095Y-80564857D01*
X190238095Y-80707714D01*
X190190476Y-80802952D01*
X190142857Y-80850571D01*
X190047619Y-80898190D01*
X189666666Y-80898190D01*
X190571428Y-80374380D02*
X191190476Y-80374380D01*
X190857142Y-80755333D01*
X191000000Y-80755333D01*
X191095238Y-80802952D01*
X191142857Y-80850571D01*
X191190476Y-80945809D01*
X191190476Y-81183904D01*
X191142857Y-81279142D01*
X191095238Y-81326761D01*
X191000000Y-81374380D01*
X190714285Y-81374380D01*
X190619047Y-81326761D01*
X190571428Y-81279142D01*
X191523809Y-80374380D02*
X192190476Y-80374380D01*
X191761904Y-81374380D01*
X89701904Y-80374380D02*
X90273333Y-80374380D01*
X89987619Y-81374380D02*
X89987619Y-80374380D01*
X90606666Y-81374380D02*
X90606666Y-80374380D01*
X90987619Y-80374380D01*
X91082857Y-80422000D01*
X91130476Y-80469619D01*
X91178095Y-80564857D01*
X91178095Y-80707714D01*
X91130476Y-80802952D01*
X91082857Y-80850571D01*
X90987619Y-80898190D01*
X90606666Y-80898190D01*
X91511428Y-80374380D02*
X92130476Y-80374380D01*
X91797142Y-80755333D01*
X91940000Y-80755333D01*
X92035238Y-80802952D01*
X92082857Y-80850571D01*
X92130476Y-80945809D01*
X92130476Y-81183904D01*
X92082857Y-81279142D01*
X92035238Y-81326761D01*
X91940000Y-81374380D01*
X91654285Y-81374380D01*
X91559047Y-81326761D01*
X91511428Y-81279142D01*
X92701904Y-80802952D02*
X92606666Y-80755333D01*
X92559047Y-80707714D01*
X92511428Y-80612476D01*
X92511428Y-80564857D01*
X92559047Y-80469619D01*
X92606666Y-80422000D01*
X92701904Y-80374380D01*
X92892380Y-80374380D01*
X92987619Y-80422000D01*
X93035238Y-80469619D01*
X93082857Y-80564857D01*
X93082857Y-80612476D01*
X93035238Y-80707714D01*
X92987619Y-80755333D01*
X92892380Y-80802952D01*
X92701904Y-80802952D01*
X92606666Y-80850571D01*
X92559047Y-80898190D01*
X92511428Y-80993428D01*
X92511428Y-81183904D01*
X92559047Y-81279142D01*
X92606666Y-81326761D01*
X92701904Y-81374380D01*
X92892380Y-81374380D01*
X92987619Y-81326761D01*
X93035238Y-81279142D01*
X93082857Y-81183904D01*
X93082857Y-80993428D01*
X93035238Y-80898190D01*
X92987619Y-80850571D01*
X92892380Y-80802952D01*
X143041904Y-87994380D02*
X143613333Y-87994380D01*
X143327619Y-88994380D02*
X143327619Y-87994380D01*
X143946666Y-88994380D02*
X143946666Y-87994380D01*
X144327619Y-87994380D01*
X144422857Y-88042000D01*
X144470476Y-88089619D01*
X144518095Y-88184857D01*
X144518095Y-88327714D01*
X144470476Y-88422952D01*
X144422857Y-88470571D01*
X144327619Y-88518190D01*
X143946666Y-88518190D01*
X144851428Y-87994380D02*
X145470476Y-87994380D01*
X145137142Y-88375333D01*
X145280000Y-88375333D01*
X145375238Y-88422952D01*
X145422857Y-88470571D01*
X145470476Y-88565809D01*
X145470476Y-88803904D01*
X145422857Y-88899142D01*
X145375238Y-88946761D01*
X145280000Y-88994380D01*
X144994285Y-88994380D01*
X144899047Y-88946761D01*
X144851428Y-88899142D01*
X145946666Y-88994380D02*
X146137142Y-88994380D01*
X146232380Y-88946761D01*
X146280000Y-88899142D01*
X146375238Y-88756285D01*
X146422857Y-88565809D01*
X146422857Y-88184857D01*
X146375238Y-88089619D01*
X146327619Y-88042000D01*
X146232380Y-87994380D01*
X146041904Y-87994380D01*
X145946666Y-88042000D01*
X145899047Y-88089619D01*
X145851428Y-88184857D01*
X145851428Y-88422952D01*
X145899047Y-88518190D01*
X145946666Y-88565809D01*
X146041904Y-88613428D01*
X146232380Y-88613428D01*
X146327619Y-88565809D01*
X146375238Y-88518190D01*
X146422857Y-88422952D01*
X173521904Y-110854380D02*
X174093333Y-110854380D01*
X173807619Y-111854380D02*
X173807619Y-110854380D01*
X174426666Y-111854380D02*
X174426666Y-110854380D01*
X174807619Y-110854380D01*
X174902857Y-110902000D01*
X174950476Y-110949619D01*
X174998095Y-111044857D01*
X174998095Y-111187714D01*
X174950476Y-111282952D01*
X174902857Y-111330571D01*
X174807619Y-111378190D01*
X174426666Y-111378190D01*
X175855238Y-111187714D02*
X175855238Y-111854380D01*
X175617142Y-110806761D02*
X175379047Y-111521047D01*
X175998095Y-111521047D01*
X176569523Y-110854380D02*
X176664761Y-110854380D01*
X176760000Y-110902000D01*
X176807619Y-110949619D01*
X176855238Y-111044857D01*
X176902857Y-111235333D01*
X176902857Y-111473428D01*
X176855238Y-111663904D01*
X176807619Y-111759142D01*
X176760000Y-111806761D01*
X176664761Y-111854380D01*
X176569523Y-111854380D01*
X176474285Y-111806761D01*
X176426666Y-111759142D01*
X176379047Y-111663904D01*
X176331428Y-111473428D01*
X176331428Y-111235333D01*
X176379047Y-111044857D01*
X176426666Y-110949619D01*
X176474285Y-110902000D01*
X176569523Y-110854380D01*
X132281904Y-206174380D02*
X132853333Y-206174380D01*
X132567619Y-207174380D02*
X132567619Y-206174380D01*
X133186666Y-207174380D02*
X133186666Y-206174380D01*
X133567619Y-206174380D01*
X133662857Y-206222000D01*
X133710476Y-206269619D01*
X133758095Y-206364857D01*
X133758095Y-206507714D01*
X133710476Y-206602952D01*
X133662857Y-206650571D01*
X133567619Y-206698190D01*
X133186666Y-206698190D01*
X134615238Y-206507714D02*
X134615238Y-207174380D01*
X134377142Y-206126761D02*
X134139047Y-206841047D01*
X134758095Y-206841047D01*
X135662857Y-207174380D02*
X135091428Y-207174380D01*
X135377142Y-207174380D02*
X135377142Y-206174380D01*
X135281904Y-206317238D01*
X135186666Y-206412476D01*
X135091428Y-206460095D01*
X97321904Y-80374380D02*
X97893333Y-80374380D01*
X97607619Y-81374380D02*
X97607619Y-80374380D01*
X98226666Y-81374380D02*
X98226666Y-80374380D01*
X98607619Y-80374380D01*
X98702857Y-80422000D01*
X98750476Y-80469619D01*
X98798095Y-80564857D01*
X98798095Y-80707714D01*
X98750476Y-80802952D01*
X98702857Y-80850571D01*
X98607619Y-80898190D01*
X98226666Y-80898190D01*
X99655238Y-80707714D02*
X99655238Y-81374380D01*
X99417142Y-80326761D02*
X99179047Y-81041047D01*
X99798095Y-81041047D01*
X100131428Y-80469619D02*
X100179047Y-80422000D01*
X100274285Y-80374380D01*
X100512380Y-80374380D01*
X100607619Y-80422000D01*
X100655238Y-80469619D01*
X100702857Y-80564857D01*
X100702857Y-80660095D01*
X100655238Y-80802952D01*
X100083809Y-81374380D01*
X100702857Y-81374380D01*
X150661904Y-80374380D02*
X151233333Y-80374380D01*
X150947619Y-81374380D02*
X150947619Y-80374380D01*
X151566666Y-81374380D02*
X151566666Y-80374380D01*
X151947619Y-80374380D01*
X152042857Y-80422000D01*
X152090476Y-80469619D01*
X152138095Y-80564857D01*
X152138095Y-80707714D01*
X152090476Y-80802952D01*
X152042857Y-80850571D01*
X151947619Y-80898190D01*
X151566666Y-80898190D01*
X152995238Y-80707714D02*
X152995238Y-81374380D01*
X152757142Y-80326761D02*
X152519047Y-81041047D01*
X153138095Y-81041047D01*
X153423809Y-80374380D02*
X154042857Y-80374380D01*
X153709523Y-80755333D01*
X153852380Y-80755333D01*
X153947619Y-80802952D01*
X153995238Y-80850571D01*
X154042857Y-80945809D01*
X154042857Y-81183904D01*
X153995238Y-81279142D01*
X153947619Y-81326761D01*
X153852380Y-81374380D01*
X153566666Y-81374380D01*
X153471428Y-81326761D01*
X153423809Y-81279142D01*
X112561904Y-80374380D02*
X113133333Y-80374380D01*
X112847619Y-81374380D02*
X112847619Y-80374380D01*
X113466666Y-81374380D02*
X113466666Y-80374380D01*
X113847619Y-80374380D01*
X113942857Y-80422000D01*
X113990476Y-80469619D01*
X114038095Y-80564857D01*
X114038095Y-80707714D01*
X113990476Y-80802952D01*
X113942857Y-80850571D01*
X113847619Y-80898190D01*
X113466666Y-80898190D01*
X114895238Y-80707714D02*
X114895238Y-81374380D01*
X114657142Y-80326761D02*
X114419047Y-81041047D01*
X115038095Y-81041047D01*
X115847619Y-80707714D02*
X115847619Y-81374380D01*
X115609523Y-80326761D02*
X115371428Y-81041047D01*
X115990476Y-81041047D01*
X143041904Y-95614380D02*
X143613333Y-95614380D01*
X143327619Y-96614380D02*
X143327619Y-95614380D01*
X143946666Y-96614380D02*
X143946666Y-95614380D01*
X144327619Y-95614380D01*
X144422857Y-95662000D01*
X144470476Y-95709619D01*
X144518095Y-95804857D01*
X144518095Y-95947714D01*
X144470476Y-96042952D01*
X144422857Y-96090571D01*
X144327619Y-96138190D01*
X143946666Y-96138190D01*
X145375238Y-95947714D02*
X145375238Y-96614380D01*
X145137142Y-95566761D02*
X144899047Y-96281047D01*
X145518095Y-96281047D01*
X146375238Y-95614380D02*
X145899047Y-95614380D01*
X145851428Y-96090571D01*
X145899047Y-96042952D01*
X145994285Y-95995333D01*
X146232380Y-95995333D01*
X146327619Y-96042952D01*
X146375238Y-96090571D01*
X146422857Y-96185809D01*
X146422857Y-96423904D01*
X146375238Y-96519142D01*
X146327619Y-96566761D01*
X146232380Y-96614380D01*
X145994285Y-96614380D01*
X145899047Y-96566761D01*
X145851428Y-96519142D01*
X132281904Y-212224380D02*
X132853333Y-212224380D01*
X132567619Y-213224380D02*
X132567619Y-212224380D01*
X133186666Y-213224380D02*
X133186666Y-212224380D01*
X133567619Y-212224380D01*
X133662857Y-212272000D01*
X133710476Y-212319619D01*
X133758095Y-212414857D01*
X133758095Y-212557714D01*
X133710476Y-212652952D01*
X133662857Y-212700571D01*
X133567619Y-212748190D01*
X133186666Y-212748190D01*
X134615238Y-212557714D02*
X134615238Y-213224380D01*
X134377142Y-212176761D02*
X134139047Y-212891047D01*
X134758095Y-212891047D01*
X135567619Y-212224380D02*
X135377142Y-212224380D01*
X135281904Y-212272000D01*
X135234285Y-212319619D01*
X135139047Y-212462476D01*
X135091428Y-212652952D01*
X135091428Y-213033904D01*
X135139047Y-213129142D01*
X135186666Y-213176761D01*
X135281904Y-213224380D01*
X135472380Y-213224380D01*
X135567619Y-213176761D01*
X135615238Y-213129142D01*
X135662857Y-213033904D01*
X135662857Y-212795809D01*
X135615238Y-212700571D01*
X135567619Y-212652952D01*
X135472380Y-212605333D01*
X135281904Y-212605333D01*
X135186666Y-212652952D01*
X135139047Y-212700571D01*
X135091428Y-212795809D01*
X97321904Y-87994380D02*
X97893333Y-87994380D01*
X97607619Y-88994380D02*
X97607619Y-87994380D01*
X98226666Y-88994380D02*
X98226666Y-87994380D01*
X98607619Y-87994380D01*
X98702857Y-88042000D01*
X98750476Y-88089619D01*
X98798095Y-88184857D01*
X98798095Y-88327714D01*
X98750476Y-88422952D01*
X98702857Y-88470571D01*
X98607619Y-88518190D01*
X98226666Y-88518190D01*
X99655238Y-88327714D02*
X99655238Y-88994380D01*
X99417142Y-87946761D02*
X99179047Y-88661047D01*
X99798095Y-88661047D01*
X100083809Y-87994380D02*
X100750476Y-87994380D01*
X100321904Y-88994380D01*
X104941904Y-80374380D02*
X105513333Y-80374380D01*
X105227619Y-81374380D02*
X105227619Y-80374380D01*
X105846666Y-81374380D02*
X105846666Y-80374380D01*
X106227619Y-80374380D01*
X106322857Y-80422000D01*
X106370476Y-80469619D01*
X106418095Y-80564857D01*
X106418095Y-80707714D01*
X106370476Y-80802952D01*
X106322857Y-80850571D01*
X106227619Y-80898190D01*
X105846666Y-80898190D01*
X107275238Y-80707714D02*
X107275238Y-81374380D01*
X107037142Y-80326761D02*
X106799047Y-81041047D01*
X107418095Y-81041047D01*
X107941904Y-80802952D02*
X107846666Y-80755333D01*
X107799047Y-80707714D01*
X107751428Y-80612476D01*
X107751428Y-80564857D01*
X107799047Y-80469619D01*
X107846666Y-80422000D01*
X107941904Y-80374380D01*
X108132380Y-80374380D01*
X108227619Y-80422000D01*
X108275238Y-80469619D01*
X108322857Y-80564857D01*
X108322857Y-80612476D01*
X108275238Y-80707714D01*
X108227619Y-80755333D01*
X108132380Y-80802952D01*
X107941904Y-80802952D01*
X107846666Y-80850571D01*
X107799047Y-80898190D01*
X107751428Y-80993428D01*
X107751428Y-81183904D01*
X107799047Y-81279142D01*
X107846666Y-81326761D01*
X107941904Y-81374380D01*
X108132380Y-81374380D01*
X108227619Y-81326761D01*
X108275238Y-81279142D01*
X108322857Y-81183904D01*
X108322857Y-80993428D01*
X108275238Y-80898190D01*
X108227619Y-80850571D01*
X108132380Y-80802952D01*
X158281904Y-80374380D02*
X158853333Y-80374380D01*
X158567619Y-81374380D02*
X158567619Y-80374380D01*
X159186666Y-81374380D02*
X159186666Y-80374380D01*
X159567619Y-80374380D01*
X159662857Y-80422000D01*
X159710476Y-80469619D01*
X159758095Y-80564857D01*
X159758095Y-80707714D01*
X159710476Y-80802952D01*
X159662857Y-80850571D01*
X159567619Y-80898190D01*
X159186666Y-80898190D01*
X160615238Y-80707714D02*
X160615238Y-81374380D01*
X160377142Y-80326761D02*
X160139047Y-81041047D01*
X160758095Y-81041047D01*
X161186666Y-81374380D02*
X161377142Y-81374380D01*
X161472380Y-81326761D01*
X161520000Y-81279142D01*
X161615238Y-81136285D01*
X161662857Y-80945809D01*
X161662857Y-80564857D01*
X161615238Y-80469619D01*
X161567619Y-80422000D01*
X161472380Y-80374380D01*
X161281904Y-80374380D01*
X161186666Y-80422000D01*
X161139047Y-80469619D01*
X161091428Y-80564857D01*
X161091428Y-80802952D01*
X161139047Y-80898190D01*
X161186666Y-80945809D01*
X161281904Y-80993428D01*
X161472380Y-80993428D01*
X161567619Y-80945809D01*
X161615238Y-80898190D01*
X161662857Y-80802952D01*
X120181904Y-80374380D02*
X120753333Y-80374380D01*
X120467619Y-81374380D02*
X120467619Y-80374380D01*
X121086666Y-81374380D02*
X121086666Y-80374380D01*
X121467619Y-80374380D01*
X121562857Y-80422000D01*
X121610476Y-80469619D01*
X121658095Y-80564857D01*
X121658095Y-80707714D01*
X121610476Y-80802952D01*
X121562857Y-80850571D01*
X121467619Y-80898190D01*
X121086666Y-80898190D01*
X122562857Y-80374380D02*
X122086666Y-80374380D01*
X122039047Y-80850571D01*
X122086666Y-80802952D01*
X122181904Y-80755333D01*
X122420000Y-80755333D01*
X122515238Y-80802952D01*
X122562857Y-80850571D01*
X122610476Y-80945809D01*
X122610476Y-81183904D01*
X122562857Y-81279142D01*
X122515238Y-81326761D01*
X122420000Y-81374380D01*
X122181904Y-81374380D01*
X122086666Y-81326761D01*
X122039047Y-81279142D01*
X123229523Y-80374380D02*
X123324761Y-80374380D01*
X123420000Y-80422000D01*
X123467619Y-80469619D01*
X123515238Y-80564857D01*
X123562857Y-80755333D01*
X123562857Y-80993428D01*
X123515238Y-81183904D01*
X123467619Y-81279142D01*
X123420000Y-81326761D01*
X123324761Y-81374380D01*
X123229523Y-81374380D01*
X123134285Y-81326761D01*
X123086666Y-81279142D01*
X123039047Y-81183904D01*
X122991428Y-80993428D01*
X122991428Y-80755333D01*
X123039047Y-80564857D01*
X123086666Y-80469619D01*
X123134285Y-80422000D01*
X123229523Y-80374380D01*
X143041904Y-103234380D02*
X143613333Y-103234380D01*
X143327619Y-104234380D02*
X143327619Y-103234380D01*
X143946666Y-104234380D02*
X143946666Y-103234380D01*
X144327619Y-103234380D01*
X144422857Y-103282000D01*
X144470476Y-103329619D01*
X144518095Y-103424857D01*
X144518095Y-103567714D01*
X144470476Y-103662952D01*
X144422857Y-103710571D01*
X144327619Y-103758190D01*
X143946666Y-103758190D01*
X145422857Y-103234380D02*
X144946666Y-103234380D01*
X144899047Y-103710571D01*
X144946666Y-103662952D01*
X145041904Y-103615333D01*
X145280000Y-103615333D01*
X145375238Y-103662952D01*
X145422857Y-103710571D01*
X145470476Y-103805809D01*
X145470476Y-104043904D01*
X145422857Y-104139142D01*
X145375238Y-104186761D01*
X145280000Y-104234380D01*
X145041904Y-104234380D01*
X144946666Y-104186761D01*
X144899047Y-104139142D01*
X146422857Y-104234380D02*
X145851428Y-104234380D01*
X146137142Y-104234380D02*
X146137142Y-103234380D01*
X146041904Y-103377238D01*
X145946666Y-103472476D01*
X145851428Y-103520095D01*
X97321904Y-95614380D02*
X97893333Y-95614380D01*
X97607619Y-96614380D02*
X97607619Y-95614380D01*
X98226666Y-96614380D02*
X98226666Y-95614380D01*
X98607619Y-95614380D01*
X98702857Y-95662000D01*
X98750476Y-95709619D01*
X98798095Y-95804857D01*
X98798095Y-95947714D01*
X98750476Y-96042952D01*
X98702857Y-96090571D01*
X98607619Y-96138190D01*
X98226666Y-96138190D01*
X99702857Y-95614380D02*
X99226666Y-95614380D01*
X99179047Y-96090571D01*
X99226666Y-96042952D01*
X99321904Y-95995333D01*
X99560000Y-95995333D01*
X99655238Y-96042952D01*
X99702857Y-96090571D01*
X99750476Y-96185809D01*
X99750476Y-96423904D01*
X99702857Y-96519142D01*
X99655238Y-96566761D01*
X99560000Y-96614380D01*
X99321904Y-96614380D01*
X99226666Y-96566761D01*
X99179047Y-96519142D01*
X100131428Y-95709619D02*
X100179047Y-95662000D01*
X100274285Y-95614380D01*
X100512380Y-95614380D01*
X100607619Y-95662000D01*
X100655238Y-95709619D01*
X100702857Y-95804857D01*
X100702857Y-95900095D01*
X100655238Y-96042952D01*
X100083809Y-96614380D01*
X100702857Y-96614380D01*
X104941904Y-87994380D02*
X105513333Y-87994380D01*
X105227619Y-88994380D02*
X105227619Y-87994380D01*
X105846666Y-88994380D02*
X105846666Y-87994380D01*
X106227619Y-87994380D01*
X106322857Y-88042000D01*
X106370476Y-88089619D01*
X106418095Y-88184857D01*
X106418095Y-88327714D01*
X106370476Y-88422952D01*
X106322857Y-88470571D01*
X106227619Y-88518190D01*
X105846666Y-88518190D01*
X107322857Y-87994380D02*
X106846666Y-87994380D01*
X106799047Y-88470571D01*
X106846666Y-88422952D01*
X106941904Y-88375333D01*
X107180000Y-88375333D01*
X107275238Y-88422952D01*
X107322857Y-88470571D01*
X107370476Y-88565809D01*
X107370476Y-88803904D01*
X107322857Y-88899142D01*
X107275238Y-88946761D01*
X107180000Y-88994380D01*
X106941904Y-88994380D01*
X106846666Y-88946761D01*
X106799047Y-88899142D01*
X107703809Y-87994380D02*
X108322857Y-87994380D01*
X107989523Y-88375333D01*
X108132380Y-88375333D01*
X108227619Y-88422952D01*
X108275238Y-88470571D01*
X108322857Y-88565809D01*
X108322857Y-88803904D01*
X108275238Y-88899142D01*
X108227619Y-88946761D01*
X108132380Y-88994380D01*
X107846666Y-88994380D01*
X107751428Y-88946761D01*
X107703809Y-88899142D01*
X175831904Y-207744380D02*
X176403333Y-207744380D01*
X176117619Y-208744380D02*
X176117619Y-207744380D01*
X176736666Y-208744380D02*
X176736666Y-207744380D01*
X177117619Y-207744380D01*
X177212857Y-207792000D01*
X177260476Y-207839619D01*
X177308095Y-207934857D01*
X177308095Y-208077714D01*
X177260476Y-208172952D01*
X177212857Y-208220571D01*
X177117619Y-208268190D01*
X176736666Y-208268190D01*
X178212857Y-207744380D02*
X177736666Y-207744380D01*
X177689047Y-208220571D01*
X177736666Y-208172952D01*
X177831904Y-208125333D01*
X178070000Y-208125333D01*
X178165238Y-208172952D01*
X178212857Y-208220571D01*
X178260476Y-208315809D01*
X178260476Y-208553904D01*
X178212857Y-208649142D01*
X178165238Y-208696761D01*
X178070000Y-208744380D01*
X177831904Y-208744380D01*
X177736666Y-208696761D01*
X177689047Y-208649142D01*
X179117619Y-208077714D02*
X179117619Y-208744380D01*
X178879523Y-207696761D02*
X178641428Y-208411047D01*
X179260476Y-208411047D01*
X165901904Y-80374380D02*
X166473333Y-80374380D01*
X166187619Y-81374380D02*
X166187619Y-80374380D01*
X166806666Y-81374380D02*
X166806666Y-80374380D01*
X167187619Y-80374380D01*
X167282857Y-80422000D01*
X167330476Y-80469619D01*
X167378095Y-80564857D01*
X167378095Y-80707714D01*
X167330476Y-80802952D01*
X167282857Y-80850571D01*
X167187619Y-80898190D01*
X166806666Y-80898190D01*
X168282857Y-80374380D02*
X167806666Y-80374380D01*
X167759047Y-80850571D01*
X167806666Y-80802952D01*
X167901904Y-80755333D01*
X168140000Y-80755333D01*
X168235238Y-80802952D01*
X168282857Y-80850571D01*
X168330476Y-80945809D01*
X168330476Y-81183904D01*
X168282857Y-81279142D01*
X168235238Y-81326761D01*
X168140000Y-81374380D01*
X167901904Y-81374380D01*
X167806666Y-81326761D01*
X167759047Y-81279142D01*
X169235238Y-80374380D02*
X168759047Y-80374380D01*
X168711428Y-80850571D01*
X168759047Y-80802952D01*
X168854285Y-80755333D01*
X169092380Y-80755333D01*
X169187619Y-80802952D01*
X169235238Y-80850571D01*
X169282857Y-80945809D01*
X169282857Y-81183904D01*
X169235238Y-81279142D01*
X169187619Y-81326761D01*
X169092380Y-81374380D01*
X168854285Y-81374380D01*
X168759047Y-81326761D01*
X168711428Y-81279142D01*
X127801904Y-80374380D02*
X128373333Y-80374380D01*
X128087619Y-81374380D02*
X128087619Y-80374380D01*
X128706666Y-81374380D02*
X128706666Y-80374380D01*
X129087619Y-80374380D01*
X129182857Y-80422000D01*
X129230476Y-80469619D01*
X129278095Y-80564857D01*
X129278095Y-80707714D01*
X129230476Y-80802952D01*
X129182857Y-80850571D01*
X129087619Y-80898190D01*
X128706666Y-80898190D01*
X130182857Y-80374380D02*
X129706666Y-80374380D01*
X129659047Y-80850571D01*
X129706666Y-80802952D01*
X129801904Y-80755333D01*
X130040000Y-80755333D01*
X130135238Y-80802952D01*
X130182857Y-80850571D01*
X130230476Y-80945809D01*
X130230476Y-81183904D01*
X130182857Y-81279142D01*
X130135238Y-81326761D01*
X130040000Y-81374380D01*
X129801904Y-81374380D01*
X129706666Y-81326761D01*
X129659047Y-81279142D01*
X131087619Y-80374380D02*
X130897142Y-80374380D01*
X130801904Y-80422000D01*
X130754285Y-80469619D01*
X130659047Y-80612476D01*
X130611428Y-80802952D01*
X130611428Y-81183904D01*
X130659047Y-81279142D01*
X130706666Y-81326761D01*
X130801904Y-81374380D01*
X130992380Y-81374380D01*
X131087619Y-81326761D01*
X131135238Y-81279142D01*
X131182857Y-81183904D01*
X131182857Y-80945809D01*
X131135238Y-80850571D01*
X131087619Y-80802952D01*
X130992380Y-80755333D01*
X130801904Y-80755333D01*
X130706666Y-80802952D01*
X130659047Y-80850571D01*
X130611428Y-80945809D01*
X173521904Y-87994380D02*
X174093333Y-87994380D01*
X173807619Y-88994380D02*
X173807619Y-87994380D01*
X174426666Y-88994380D02*
X174426666Y-87994380D01*
X174807619Y-87994380D01*
X174902857Y-88042000D01*
X174950476Y-88089619D01*
X174998095Y-88184857D01*
X174998095Y-88327714D01*
X174950476Y-88422952D01*
X174902857Y-88470571D01*
X174807619Y-88518190D01*
X174426666Y-88518190D01*
X175902857Y-87994380D02*
X175426666Y-87994380D01*
X175379047Y-88470571D01*
X175426666Y-88422952D01*
X175521904Y-88375333D01*
X175760000Y-88375333D01*
X175855238Y-88422952D01*
X175902857Y-88470571D01*
X175950476Y-88565809D01*
X175950476Y-88803904D01*
X175902857Y-88899142D01*
X175855238Y-88946761D01*
X175760000Y-88994380D01*
X175521904Y-88994380D01*
X175426666Y-88946761D01*
X175379047Y-88899142D01*
X176283809Y-87994380D02*
X176950476Y-87994380D01*
X176521904Y-88994380D01*
X104941904Y-95614380D02*
X105513333Y-95614380D01*
X105227619Y-96614380D02*
X105227619Y-95614380D01*
X105846666Y-96614380D02*
X105846666Y-95614380D01*
X106227619Y-95614380D01*
X106322857Y-95662000D01*
X106370476Y-95709619D01*
X106418095Y-95804857D01*
X106418095Y-95947714D01*
X106370476Y-96042952D01*
X106322857Y-96090571D01*
X106227619Y-96138190D01*
X105846666Y-96138190D01*
X107322857Y-95614380D02*
X106846666Y-95614380D01*
X106799047Y-96090571D01*
X106846666Y-96042952D01*
X106941904Y-95995333D01*
X107180000Y-95995333D01*
X107275238Y-96042952D01*
X107322857Y-96090571D01*
X107370476Y-96185809D01*
X107370476Y-96423904D01*
X107322857Y-96519142D01*
X107275238Y-96566761D01*
X107180000Y-96614380D01*
X106941904Y-96614380D01*
X106846666Y-96566761D01*
X106799047Y-96519142D01*
X107941904Y-96042952D02*
X107846666Y-95995333D01*
X107799047Y-95947714D01*
X107751428Y-95852476D01*
X107751428Y-95804857D01*
X107799047Y-95709619D01*
X107846666Y-95662000D01*
X107941904Y-95614380D01*
X108132380Y-95614380D01*
X108227619Y-95662000D01*
X108275238Y-95709619D01*
X108322857Y-95804857D01*
X108322857Y-95852476D01*
X108275238Y-95947714D01*
X108227619Y-95995333D01*
X108132380Y-96042952D01*
X107941904Y-96042952D01*
X107846666Y-96090571D01*
X107799047Y-96138190D01*
X107751428Y-96233428D01*
X107751428Y-96423904D01*
X107799047Y-96519142D01*
X107846666Y-96566761D01*
X107941904Y-96614380D01*
X108132380Y-96614380D01*
X108227619Y-96566761D01*
X108275238Y-96519142D01*
X108322857Y-96423904D01*
X108322857Y-96233428D01*
X108275238Y-96138190D01*
X108227619Y-96090571D01*
X108132380Y-96042952D01*
X175831904Y-213794380D02*
X176403333Y-213794380D01*
X176117619Y-214794380D02*
X176117619Y-213794380D01*
X176736666Y-214794380D02*
X176736666Y-213794380D01*
X177117619Y-213794380D01*
X177212857Y-213842000D01*
X177260476Y-213889619D01*
X177308095Y-213984857D01*
X177308095Y-214127714D01*
X177260476Y-214222952D01*
X177212857Y-214270571D01*
X177117619Y-214318190D01*
X176736666Y-214318190D01*
X178212857Y-213794380D02*
X177736666Y-213794380D01*
X177689047Y-214270571D01*
X177736666Y-214222952D01*
X177831904Y-214175333D01*
X178070000Y-214175333D01*
X178165238Y-214222952D01*
X178212857Y-214270571D01*
X178260476Y-214365809D01*
X178260476Y-214603904D01*
X178212857Y-214699142D01*
X178165238Y-214746761D01*
X178070000Y-214794380D01*
X177831904Y-214794380D01*
X177736666Y-214746761D01*
X177689047Y-214699142D01*
X178736666Y-214794380D02*
X178927142Y-214794380D01*
X179022380Y-214746761D01*
X179070000Y-214699142D01*
X179165238Y-214556285D01*
X179212857Y-214365809D01*
X179212857Y-213984857D01*
X179165238Y-213889619D01*
X179117619Y-213842000D01*
X179022380Y-213794380D01*
X178831904Y-213794380D01*
X178736666Y-213842000D01*
X178689047Y-213889619D01*
X178641428Y-213984857D01*
X178641428Y-214222952D01*
X178689047Y-214318190D01*
X178736666Y-214365809D01*
X178831904Y-214413428D01*
X179022380Y-214413428D01*
X179117619Y-214365809D01*
X179165238Y-214318190D01*
X179212857Y-214222952D01*
X181881904Y-207744380D02*
X182453333Y-207744380D01*
X182167619Y-208744380D02*
X182167619Y-207744380D01*
X182786666Y-208744380D02*
X182786666Y-207744380D01*
X183167619Y-207744380D01*
X183262857Y-207792000D01*
X183310476Y-207839619D01*
X183358095Y-207934857D01*
X183358095Y-208077714D01*
X183310476Y-208172952D01*
X183262857Y-208220571D01*
X183167619Y-208268190D01*
X182786666Y-208268190D01*
X184215238Y-207744380D02*
X184024761Y-207744380D01*
X183929523Y-207792000D01*
X183881904Y-207839619D01*
X183786666Y-207982476D01*
X183739047Y-208172952D01*
X183739047Y-208553904D01*
X183786666Y-208649142D01*
X183834285Y-208696761D01*
X183929523Y-208744380D01*
X184120000Y-208744380D01*
X184215238Y-208696761D01*
X184262857Y-208649142D01*
X184310476Y-208553904D01*
X184310476Y-208315809D01*
X184262857Y-208220571D01*
X184215238Y-208172952D01*
X184120000Y-208125333D01*
X183929523Y-208125333D01*
X183834285Y-208172952D01*
X183786666Y-208220571D01*
X183739047Y-208315809D01*
X184929523Y-207744380D02*
X185024761Y-207744380D01*
X185120000Y-207792000D01*
X185167619Y-207839619D01*
X185215238Y-207934857D01*
X185262857Y-208125333D01*
X185262857Y-208363428D01*
X185215238Y-208553904D01*
X185167619Y-208649142D01*
X185120000Y-208696761D01*
X185024761Y-208744380D01*
X184929523Y-208744380D01*
X184834285Y-208696761D01*
X184786666Y-208649142D01*
X184739047Y-208553904D01*
X184691428Y-208363428D01*
X184691428Y-208125333D01*
X184739047Y-207934857D01*
X184786666Y-207839619D01*
X184834285Y-207792000D01*
X184929523Y-207744380D01*
X173521904Y-80374380D02*
X174093333Y-80374380D01*
X173807619Y-81374380D02*
X173807619Y-80374380D01*
X174426666Y-81374380D02*
X174426666Y-80374380D01*
X174807619Y-80374380D01*
X174902857Y-80422000D01*
X174950476Y-80469619D01*
X174998095Y-80564857D01*
X174998095Y-80707714D01*
X174950476Y-80802952D01*
X174902857Y-80850571D01*
X174807619Y-80898190D01*
X174426666Y-80898190D01*
X175855238Y-80374380D02*
X175664761Y-80374380D01*
X175569523Y-80422000D01*
X175521904Y-80469619D01*
X175426666Y-80612476D01*
X175379047Y-80802952D01*
X175379047Y-81183904D01*
X175426666Y-81279142D01*
X175474285Y-81326761D01*
X175569523Y-81374380D01*
X175760000Y-81374380D01*
X175855238Y-81326761D01*
X175902857Y-81279142D01*
X175950476Y-81183904D01*
X175950476Y-80945809D01*
X175902857Y-80850571D01*
X175855238Y-80802952D01*
X175760000Y-80755333D01*
X175569523Y-80755333D01*
X175474285Y-80802952D01*
X175426666Y-80850571D01*
X175379047Y-80945809D01*
X176902857Y-81374380D02*
X176331428Y-81374380D01*
X176617142Y-81374380D02*
X176617142Y-80374380D01*
X176521904Y-80517238D01*
X176426666Y-80612476D01*
X176331428Y-80660095D01*
X135421904Y-80374380D02*
X135993333Y-80374380D01*
X135707619Y-81374380D02*
X135707619Y-80374380D01*
X136326666Y-81374380D02*
X136326666Y-80374380D01*
X136707619Y-80374380D01*
X136802857Y-80422000D01*
X136850476Y-80469619D01*
X136898095Y-80564857D01*
X136898095Y-80707714D01*
X136850476Y-80802952D01*
X136802857Y-80850571D01*
X136707619Y-80898190D01*
X136326666Y-80898190D01*
X137755238Y-80374380D02*
X137564761Y-80374380D01*
X137469523Y-80422000D01*
X137421904Y-80469619D01*
X137326666Y-80612476D01*
X137279047Y-80802952D01*
X137279047Y-81183904D01*
X137326666Y-81279142D01*
X137374285Y-81326761D01*
X137469523Y-81374380D01*
X137660000Y-81374380D01*
X137755238Y-81326761D01*
X137802857Y-81279142D01*
X137850476Y-81183904D01*
X137850476Y-80945809D01*
X137802857Y-80850571D01*
X137755238Y-80802952D01*
X137660000Y-80755333D01*
X137469523Y-80755333D01*
X137374285Y-80802952D01*
X137326666Y-80850571D01*
X137279047Y-80945809D01*
X138231428Y-80469619D02*
X138279047Y-80422000D01*
X138374285Y-80374380D01*
X138612380Y-80374380D01*
X138707619Y-80422000D01*
X138755238Y-80469619D01*
X138802857Y-80564857D01*
X138802857Y-80660095D01*
X138755238Y-80802952D01*
X138183809Y-81374380D01*
X138802857Y-81374380D01*
X173521904Y-95614380D02*
X174093333Y-95614380D01*
X173807619Y-96614380D02*
X173807619Y-95614380D01*
X174426666Y-96614380D02*
X174426666Y-95614380D01*
X174807619Y-95614380D01*
X174902857Y-95662000D01*
X174950476Y-95709619D01*
X174998095Y-95804857D01*
X174998095Y-95947714D01*
X174950476Y-96042952D01*
X174902857Y-96090571D01*
X174807619Y-96138190D01*
X174426666Y-96138190D01*
X175855238Y-95614380D02*
X175664761Y-95614380D01*
X175569523Y-95662000D01*
X175521904Y-95709619D01*
X175426666Y-95852476D01*
X175379047Y-96042952D01*
X175379047Y-96423904D01*
X175426666Y-96519142D01*
X175474285Y-96566761D01*
X175569523Y-96614380D01*
X175760000Y-96614380D01*
X175855238Y-96566761D01*
X175902857Y-96519142D01*
X175950476Y-96423904D01*
X175950476Y-96185809D01*
X175902857Y-96090571D01*
X175855238Y-96042952D01*
X175760000Y-95995333D01*
X175569523Y-95995333D01*
X175474285Y-96042952D01*
X175426666Y-96090571D01*
X175379047Y-96185809D01*
X176283809Y-95614380D02*
X176902857Y-95614380D01*
X176569523Y-95995333D01*
X176712380Y-95995333D01*
X176807619Y-96042952D01*
X176855238Y-96090571D01*
X176902857Y-96185809D01*
X176902857Y-96423904D01*
X176855238Y-96519142D01*
X176807619Y-96566761D01*
X176712380Y-96614380D01*
X176426666Y-96614380D01*
X176331428Y-96566761D01*
X176283809Y-96519142D01*
X175831904Y-219844380D02*
X176403333Y-219844380D01*
X176117619Y-220844380D02*
X176117619Y-219844380D01*
X176736666Y-220844380D02*
X176736666Y-219844380D01*
X177117619Y-219844380D01*
X177212857Y-219892000D01*
X177260476Y-219939619D01*
X177308095Y-220034857D01*
X177308095Y-220177714D01*
X177260476Y-220272952D01*
X177212857Y-220320571D01*
X177117619Y-220368190D01*
X176736666Y-220368190D01*
X178165238Y-219844380D02*
X177974761Y-219844380D01*
X177879523Y-219892000D01*
X177831904Y-219939619D01*
X177736666Y-220082476D01*
X177689047Y-220272952D01*
X177689047Y-220653904D01*
X177736666Y-220749142D01*
X177784285Y-220796761D01*
X177879523Y-220844380D01*
X178070000Y-220844380D01*
X178165238Y-220796761D01*
X178212857Y-220749142D01*
X178260476Y-220653904D01*
X178260476Y-220415809D01*
X178212857Y-220320571D01*
X178165238Y-220272952D01*
X178070000Y-220225333D01*
X177879523Y-220225333D01*
X177784285Y-220272952D01*
X177736666Y-220320571D01*
X177689047Y-220415809D01*
X179117619Y-220177714D02*
X179117619Y-220844380D01*
X178879523Y-219796761D02*
X178641428Y-220511047D01*
X179260476Y-220511047D01*
X181881904Y-213794380D02*
X182453333Y-213794380D01*
X182167619Y-214794380D02*
X182167619Y-213794380D01*
X182786666Y-214794380D02*
X182786666Y-213794380D01*
X183167619Y-213794380D01*
X183262857Y-213842000D01*
X183310476Y-213889619D01*
X183358095Y-213984857D01*
X183358095Y-214127714D01*
X183310476Y-214222952D01*
X183262857Y-214270571D01*
X183167619Y-214318190D01*
X182786666Y-214318190D01*
X184215238Y-213794380D02*
X184024761Y-213794380D01*
X183929523Y-213842000D01*
X183881904Y-213889619D01*
X183786666Y-214032476D01*
X183739047Y-214222952D01*
X183739047Y-214603904D01*
X183786666Y-214699142D01*
X183834285Y-214746761D01*
X183929523Y-214794380D01*
X184120000Y-214794380D01*
X184215238Y-214746761D01*
X184262857Y-214699142D01*
X184310476Y-214603904D01*
X184310476Y-214365809D01*
X184262857Y-214270571D01*
X184215238Y-214222952D01*
X184120000Y-214175333D01*
X183929523Y-214175333D01*
X183834285Y-214222952D01*
X183786666Y-214270571D01*
X183739047Y-214365809D01*
X185215238Y-213794380D02*
X184739047Y-213794380D01*
X184691428Y-214270571D01*
X184739047Y-214222952D01*
X184834285Y-214175333D01*
X185072380Y-214175333D01*
X185167619Y-214222952D01*
X185215238Y-214270571D01*
X185262857Y-214365809D01*
X185262857Y-214603904D01*
X185215238Y-214699142D01*
X185167619Y-214746761D01*
X185072380Y-214794380D01*
X184834285Y-214794380D01*
X184739047Y-214746761D01*
X184691428Y-214699142D01*
X187931904Y-207744380D02*
X188503333Y-207744380D01*
X188217619Y-208744380D02*
X188217619Y-207744380D01*
X188836666Y-208744380D02*
X188836666Y-207744380D01*
X189217619Y-207744380D01*
X189312857Y-207792000D01*
X189360476Y-207839619D01*
X189408095Y-207934857D01*
X189408095Y-208077714D01*
X189360476Y-208172952D01*
X189312857Y-208220571D01*
X189217619Y-208268190D01*
X188836666Y-208268190D01*
X190265238Y-207744380D02*
X190074761Y-207744380D01*
X189979523Y-207792000D01*
X189931904Y-207839619D01*
X189836666Y-207982476D01*
X189789047Y-208172952D01*
X189789047Y-208553904D01*
X189836666Y-208649142D01*
X189884285Y-208696761D01*
X189979523Y-208744380D01*
X190170000Y-208744380D01*
X190265238Y-208696761D01*
X190312857Y-208649142D01*
X190360476Y-208553904D01*
X190360476Y-208315809D01*
X190312857Y-208220571D01*
X190265238Y-208172952D01*
X190170000Y-208125333D01*
X189979523Y-208125333D01*
X189884285Y-208172952D01*
X189836666Y-208220571D01*
X189789047Y-208315809D01*
X191217619Y-207744380D02*
X191027142Y-207744380D01*
X190931904Y-207792000D01*
X190884285Y-207839619D01*
X190789047Y-207982476D01*
X190741428Y-208172952D01*
X190741428Y-208553904D01*
X190789047Y-208649142D01*
X190836666Y-208696761D01*
X190931904Y-208744380D01*
X191122380Y-208744380D01*
X191217619Y-208696761D01*
X191265238Y-208649142D01*
X191312857Y-208553904D01*
X191312857Y-208315809D01*
X191265238Y-208220571D01*
X191217619Y-208172952D01*
X191122380Y-208125333D01*
X190931904Y-208125333D01*
X190836666Y-208172952D01*
X190789047Y-208220571D01*
X190741428Y-208315809D01*
X181141904Y-80374380D02*
X181713333Y-80374380D01*
X181427619Y-81374380D02*
X181427619Y-80374380D01*
X182046666Y-81374380D02*
X182046666Y-80374380D01*
X182427619Y-80374380D01*
X182522857Y-80422000D01*
X182570476Y-80469619D01*
X182618095Y-80564857D01*
X182618095Y-80707714D01*
X182570476Y-80802952D01*
X182522857Y-80850571D01*
X182427619Y-80898190D01*
X182046666Y-80898190D01*
X183475238Y-80374380D02*
X183284761Y-80374380D01*
X183189523Y-80422000D01*
X183141904Y-80469619D01*
X183046666Y-80612476D01*
X182999047Y-80802952D01*
X182999047Y-81183904D01*
X183046666Y-81279142D01*
X183094285Y-81326761D01*
X183189523Y-81374380D01*
X183380000Y-81374380D01*
X183475238Y-81326761D01*
X183522857Y-81279142D01*
X183570476Y-81183904D01*
X183570476Y-80945809D01*
X183522857Y-80850571D01*
X183475238Y-80802952D01*
X183380000Y-80755333D01*
X183189523Y-80755333D01*
X183094285Y-80802952D01*
X183046666Y-80850571D01*
X182999047Y-80945809D01*
X183903809Y-80374380D02*
X184570476Y-80374380D01*
X184141904Y-81374380D01*
X143041904Y-80374380D02*
X143613333Y-80374380D01*
X143327619Y-81374380D02*
X143327619Y-80374380D01*
X143946666Y-81374380D02*
X143946666Y-80374380D01*
X144327619Y-80374380D01*
X144422857Y-80422000D01*
X144470476Y-80469619D01*
X144518095Y-80564857D01*
X144518095Y-80707714D01*
X144470476Y-80802952D01*
X144422857Y-80850571D01*
X144327619Y-80898190D01*
X143946666Y-80898190D01*
X145375238Y-80374380D02*
X145184761Y-80374380D01*
X145089523Y-80422000D01*
X145041904Y-80469619D01*
X144946666Y-80612476D01*
X144899047Y-80802952D01*
X144899047Y-81183904D01*
X144946666Y-81279142D01*
X144994285Y-81326761D01*
X145089523Y-81374380D01*
X145280000Y-81374380D01*
X145375238Y-81326761D01*
X145422857Y-81279142D01*
X145470476Y-81183904D01*
X145470476Y-80945809D01*
X145422857Y-80850571D01*
X145375238Y-80802952D01*
X145280000Y-80755333D01*
X145089523Y-80755333D01*
X144994285Y-80802952D01*
X144946666Y-80850571D01*
X144899047Y-80945809D01*
X146041904Y-80802952D02*
X145946666Y-80755333D01*
X145899047Y-80707714D01*
X145851428Y-80612476D01*
X145851428Y-80564857D01*
X145899047Y-80469619D01*
X145946666Y-80422000D01*
X146041904Y-80374380D01*
X146232380Y-80374380D01*
X146327619Y-80422000D01*
X146375238Y-80469619D01*
X146422857Y-80564857D01*
X146422857Y-80612476D01*
X146375238Y-80707714D01*
X146327619Y-80755333D01*
X146232380Y-80802952D01*
X146041904Y-80802952D01*
X145946666Y-80850571D01*
X145899047Y-80898190D01*
X145851428Y-80993428D01*
X145851428Y-81183904D01*
X145899047Y-81279142D01*
X145946666Y-81326761D01*
X146041904Y-81374380D01*
X146232380Y-81374380D01*
X146327619Y-81326761D01*
X146375238Y-81279142D01*
X146422857Y-81183904D01*
X146422857Y-80993428D01*
X146375238Y-80898190D01*
X146327619Y-80850571D01*
X146232380Y-80802952D01*
X181141904Y-87994380D02*
X181713333Y-87994380D01*
X181427619Y-88994380D02*
X181427619Y-87994380D01*
X182046666Y-88994380D02*
X182046666Y-87994380D01*
X182427619Y-87994380D01*
X182522857Y-88042000D01*
X182570476Y-88089619D01*
X182618095Y-88184857D01*
X182618095Y-88327714D01*
X182570476Y-88422952D01*
X182522857Y-88470571D01*
X182427619Y-88518190D01*
X182046666Y-88518190D01*
X183475238Y-87994380D02*
X183284761Y-87994380D01*
X183189523Y-88042000D01*
X183141904Y-88089619D01*
X183046666Y-88232476D01*
X182999047Y-88422952D01*
X182999047Y-88803904D01*
X183046666Y-88899142D01*
X183094285Y-88946761D01*
X183189523Y-88994380D01*
X183380000Y-88994380D01*
X183475238Y-88946761D01*
X183522857Y-88899142D01*
X183570476Y-88803904D01*
X183570476Y-88565809D01*
X183522857Y-88470571D01*
X183475238Y-88422952D01*
X183380000Y-88375333D01*
X183189523Y-88375333D01*
X183094285Y-88422952D01*
X183046666Y-88470571D01*
X182999047Y-88565809D01*
X184046666Y-88994380D02*
X184237142Y-88994380D01*
X184332380Y-88946761D01*
X184380000Y-88899142D01*
X184475238Y-88756285D01*
X184522857Y-88565809D01*
X184522857Y-88184857D01*
X184475238Y-88089619D01*
X184427619Y-88042000D01*
X184332380Y-87994380D01*
X184141904Y-87994380D01*
X184046666Y-88042000D01*
X183999047Y-88089619D01*
X183951428Y-88184857D01*
X183951428Y-88422952D01*
X183999047Y-88518190D01*
X184046666Y-88565809D01*
X184141904Y-88613428D01*
X184332380Y-88613428D01*
X184427619Y-88565809D01*
X184475238Y-88518190D01*
X184522857Y-88422952D01*
X181881904Y-219844380D02*
X182453333Y-219844380D01*
X182167619Y-220844380D02*
X182167619Y-219844380D01*
X182786666Y-220844380D02*
X182786666Y-219844380D01*
X183167619Y-219844380D01*
X183262857Y-219892000D01*
X183310476Y-219939619D01*
X183358095Y-220034857D01*
X183358095Y-220177714D01*
X183310476Y-220272952D01*
X183262857Y-220320571D01*
X183167619Y-220368190D01*
X182786666Y-220368190D01*
X183691428Y-219844380D02*
X184358095Y-219844380D01*
X183929523Y-220844380D01*
X184929523Y-219844380D02*
X185024761Y-219844380D01*
X185120000Y-219892000D01*
X185167619Y-219939619D01*
X185215238Y-220034857D01*
X185262857Y-220225333D01*
X185262857Y-220463428D01*
X185215238Y-220653904D01*
X185167619Y-220749142D01*
X185120000Y-220796761D01*
X185024761Y-220844380D01*
X184929523Y-220844380D01*
X184834285Y-220796761D01*
X184786666Y-220749142D01*
X184739047Y-220653904D01*
X184691428Y-220463428D01*
X184691428Y-220225333D01*
X184739047Y-220034857D01*
X184786666Y-219939619D01*
X184834285Y-219892000D01*
X184929523Y-219844380D01*
X187931904Y-213794380D02*
X188503333Y-213794380D01*
X188217619Y-214794380D02*
X188217619Y-213794380D01*
X188836666Y-214794380D02*
X188836666Y-213794380D01*
X189217619Y-213794380D01*
X189312857Y-213842000D01*
X189360476Y-213889619D01*
X189408095Y-213984857D01*
X189408095Y-214127714D01*
X189360476Y-214222952D01*
X189312857Y-214270571D01*
X189217619Y-214318190D01*
X188836666Y-214318190D01*
X189741428Y-213794380D02*
X190408095Y-213794380D01*
X189979523Y-214794380D01*
X191312857Y-214794380D02*
X190741428Y-214794380D01*
X191027142Y-214794380D02*
X191027142Y-213794380D01*
X190931904Y-213937238D01*
X190836666Y-214032476D01*
X190741428Y-214080095D01*
X193981904Y-207744380D02*
X194553333Y-207744380D01*
X194267619Y-208744380D02*
X194267619Y-207744380D01*
X194886666Y-208744380D02*
X194886666Y-207744380D01*
X195267619Y-207744380D01*
X195362857Y-207792000D01*
X195410476Y-207839619D01*
X195458095Y-207934857D01*
X195458095Y-208077714D01*
X195410476Y-208172952D01*
X195362857Y-208220571D01*
X195267619Y-208268190D01*
X194886666Y-208268190D01*
X195791428Y-207744380D02*
X196458095Y-207744380D01*
X196029523Y-208744380D01*
X196791428Y-207839619D02*
X196839047Y-207792000D01*
X196934285Y-207744380D01*
X197172380Y-207744380D01*
X197267619Y-207792000D01*
X197315238Y-207839619D01*
X197362857Y-207934857D01*
X197362857Y-208030095D01*
X197315238Y-208172952D01*
X196743809Y-208744380D01*
X197362857Y-208744380D01*
X188761904Y-95614380D02*
X189333333Y-95614380D01*
X189047619Y-96614380D02*
X189047619Y-95614380D01*
X189666666Y-96614380D02*
X189666666Y-95614380D01*
X190047619Y-95614380D01*
X190142857Y-95662000D01*
X190190476Y-95709619D01*
X190238095Y-95804857D01*
X190238095Y-95947714D01*
X190190476Y-96042952D01*
X190142857Y-96090571D01*
X190047619Y-96138190D01*
X189666666Y-96138190D01*
X190571428Y-95614380D02*
X191238095Y-95614380D01*
X190809523Y-96614380D01*
X191523809Y-95614380D02*
X192142857Y-95614380D01*
X191809523Y-95995333D01*
X191952380Y-95995333D01*
X192047619Y-96042952D01*
X192095238Y-96090571D01*
X192142857Y-96185809D01*
X192142857Y-96423904D01*
X192095238Y-96519142D01*
X192047619Y-96566761D01*
X191952380Y-96614380D01*
X191666666Y-96614380D01*
X191571428Y-96566761D01*
X191523809Y-96519142D01*
X181141904Y-95614380D02*
X181713333Y-95614380D01*
X181427619Y-96614380D02*
X181427619Y-95614380D01*
X182046666Y-96614380D02*
X182046666Y-95614380D01*
X182427619Y-95614380D01*
X182522857Y-95662000D01*
X182570476Y-95709619D01*
X182618095Y-95804857D01*
X182618095Y-95947714D01*
X182570476Y-96042952D01*
X182522857Y-96090571D01*
X182427619Y-96138190D01*
X182046666Y-96138190D01*
X182951428Y-95614380D02*
X183618095Y-95614380D01*
X183189523Y-96614380D01*
X184427619Y-95947714D02*
X184427619Y-96614380D01*
X184189523Y-95566761D02*
X183951428Y-96281047D01*
X184570476Y-96281047D01*
X187931904Y-219844380D02*
X188503333Y-219844380D01*
X188217619Y-220844380D02*
X188217619Y-219844380D01*
X188836666Y-220844380D02*
X188836666Y-219844380D01*
X189217619Y-219844380D01*
X189312857Y-219892000D01*
X189360476Y-219939619D01*
X189408095Y-220034857D01*
X189408095Y-220177714D01*
X189360476Y-220272952D01*
X189312857Y-220320571D01*
X189217619Y-220368190D01*
X188836666Y-220368190D01*
X189741428Y-219844380D02*
X190408095Y-219844380D01*
X189979523Y-220844380D01*
X191265238Y-219844380D02*
X190789047Y-219844380D01*
X190741428Y-220320571D01*
X190789047Y-220272952D01*
X190884285Y-220225333D01*
X191122380Y-220225333D01*
X191217619Y-220272952D01*
X191265238Y-220320571D01*
X191312857Y-220415809D01*
X191312857Y-220653904D01*
X191265238Y-220749142D01*
X191217619Y-220796761D01*
X191122380Y-220844380D01*
X190884285Y-220844380D01*
X190789047Y-220796761D01*
X190741428Y-220749142D01*
X193981904Y-213794380D02*
X194553333Y-213794380D01*
X194267619Y-214794380D02*
X194267619Y-213794380D01*
X194886666Y-214794380D02*
X194886666Y-213794380D01*
X195267619Y-213794380D01*
X195362857Y-213842000D01*
X195410476Y-213889619D01*
X195458095Y-213984857D01*
X195458095Y-214127714D01*
X195410476Y-214222952D01*
X195362857Y-214270571D01*
X195267619Y-214318190D01*
X194886666Y-214318190D01*
X195791428Y-213794380D02*
X196458095Y-213794380D01*
X196029523Y-214794380D01*
X197267619Y-213794380D02*
X197077142Y-213794380D01*
X196981904Y-213842000D01*
X196934285Y-213889619D01*
X196839047Y-214032476D01*
X196791428Y-214222952D01*
X196791428Y-214603904D01*
X196839047Y-214699142D01*
X196886666Y-214746761D01*
X196981904Y-214794380D01*
X197172380Y-214794380D01*
X197267619Y-214746761D01*
X197315238Y-214699142D01*
X197362857Y-214603904D01*
X197362857Y-214365809D01*
X197315238Y-214270571D01*
X197267619Y-214222952D01*
X197172380Y-214175333D01*
X196981904Y-214175333D01*
X196886666Y-214222952D01*
X196839047Y-214270571D01*
X196791428Y-214365809D01*
X200031904Y-207744380D02*
X200603333Y-207744380D01*
X200317619Y-208744380D02*
X200317619Y-207744380D01*
X200936666Y-208744380D02*
X200936666Y-207744380D01*
X201317619Y-207744380D01*
X201412857Y-207792000D01*
X201460476Y-207839619D01*
X201508095Y-207934857D01*
X201508095Y-208077714D01*
X201460476Y-208172952D01*
X201412857Y-208220571D01*
X201317619Y-208268190D01*
X200936666Y-208268190D01*
X201841428Y-207744380D02*
X202508095Y-207744380D01*
X202079523Y-208744380D01*
X202793809Y-207744380D02*
X203460476Y-207744380D01*
X203031904Y-208744380D01*
X206081904Y-201694380D02*
X206653333Y-201694380D01*
X206367619Y-202694380D02*
X206367619Y-201694380D01*
X206986666Y-202694380D02*
X206986666Y-201694380D01*
X207367619Y-201694380D01*
X207462857Y-201742000D01*
X207510476Y-201789619D01*
X207558095Y-201884857D01*
X207558095Y-202027714D01*
X207510476Y-202122952D01*
X207462857Y-202170571D01*
X207367619Y-202218190D01*
X206986666Y-202218190D01*
X207891428Y-201694380D02*
X208558095Y-201694380D01*
X208129523Y-202694380D01*
X209081904Y-202122952D02*
X208986666Y-202075333D01*
X208939047Y-202027714D01*
X208891428Y-201932476D01*
X208891428Y-201884857D01*
X208939047Y-201789619D01*
X208986666Y-201742000D01*
X209081904Y-201694380D01*
X209272380Y-201694380D01*
X209367619Y-201742000D01*
X209415238Y-201789619D01*
X209462857Y-201884857D01*
X209462857Y-201932476D01*
X209415238Y-202027714D01*
X209367619Y-202075333D01*
X209272380Y-202122952D01*
X209081904Y-202122952D01*
X208986666Y-202170571D01*
X208939047Y-202218190D01*
X208891428Y-202313428D01*
X208891428Y-202503904D01*
X208939047Y-202599142D01*
X208986666Y-202646761D01*
X209081904Y-202694380D01*
X209272380Y-202694380D01*
X209367619Y-202646761D01*
X209415238Y-202599142D01*
X209462857Y-202503904D01*
X209462857Y-202313428D01*
X209415238Y-202218190D01*
X209367619Y-202170571D01*
X209272380Y-202122952D01*
X193981904Y-219844380D02*
X194553333Y-219844380D01*
X194267619Y-220844380D02*
X194267619Y-219844380D01*
X194886666Y-220844380D02*
X194886666Y-219844380D01*
X195267619Y-219844380D01*
X195362857Y-219892000D01*
X195410476Y-219939619D01*
X195458095Y-220034857D01*
X195458095Y-220177714D01*
X195410476Y-220272952D01*
X195362857Y-220320571D01*
X195267619Y-220368190D01*
X194886666Y-220368190D01*
X195791428Y-219844380D02*
X196458095Y-219844380D01*
X196029523Y-220844380D01*
X196886666Y-220844380D02*
X197077142Y-220844380D01*
X197172380Y-220796761D01*
X197220000Y-220749142D01*
X197315238Y-220606285D01*
X197362857Y-220415809D01*
X197362857Y-220034857D01*
X197315238Y-219939619D01*
X197267619Y-219892000D01*
X197172380Y-219844380D01*
X196981904Y-219844380D01*
X196886666Y-219892000D01*
X196839047Y-219939619D01*
X196791428Y-220034857D01*
X196791428Y-220272952D01*
X196839047Y-220368190D01*
X196886666Y-220415809D01*
X196981904Y-220463428D01*
X197172380Y-220463428D01*
X197267619Y-220415809D01*
X197315238Y-220368190D01*
X197362857Y-220272952D01*
X200031904Y-213794380D02*
X200603333Y-213794380D01*
X200317619Y-214794380D02*
X200317619Y-213794380D01*
X200936666Y-214794380D02*
X200936666Y-213794380D01*
X201317619Y-213794380D01*
X201412857Y-213842000D01*
X201460476Y-213889619D01*
X201508095Y-213984857D01*
X201508095Y-214127714D01*
X201460476Y-214222952D01*
X201412857Y-214270571D01*
X201317619Y-214318190D01*
X200936666Y-214318190D01*
X202079523Y-214222952D02*
X201984285Y-214175333D01*
X201936666Y-214127714D01*
X201889047Y-214032476D01*
X201889047Y-213984857D01*
X201936666Y-213889619D01*
X201984285Y-213842000D01*
X202079523Y-213794380D01*
X202270000Y-213794380D01*
X202365238Y-213842000D01*
X202412857Y-213889619D01*
X202460476Y-213984857D01*
X202460476Y-214032476D01*
X202412857Y-214127714D01*
X202365238Y-214175333D01*
X202270000Y-214222952D01*
X202079523Y-214222952D01*
X201984285Y-214270571D01*
X201936666Y-214318190D01*
X201889047Y-214413428D01*
X201889047Y-214603904D01*
X201936666Y-214699142D01*
X201984285Y-214746761D01*
X202079523Y-214794380D01*
X202270000Y-214794380D01*
X202365238Y-214746761D01*
X202412857Y-214699142D01*
X202460476Y-214603904D01*
X202460476Y-214413428D01*
X202412857Y-214318190D01*
X202365238Y-214270571D01*
X202270000Y-214222952D01*
X203079523Y-213794380D02*
X203174761Y-213794380D01*
X203270000Y-213842000D01*
X203317619Y-213889619D01*
X203365238Y-213984857D01*
X203412857Y-214175333D01*
X203412857Y-214413428D01*
X203365238Y-214603904D01*
X203317619Y-214699142D01*
X203270000Y-214746761D01*
X203174761Y-214794380D01*
X203079523Y-214794380D01*
X202984285Y-214746761D01*
X202936666Y-214699142D01*
X202889047Y-214603904D01*
X202841428Y-214413428D01*
X202841428Y-214175333D01*
X202889047Y-213984857D01*
X202936666Y-213889619D01*
X202984285Y-213842000D01*
X203079523Y-213794380D01*
X206081904Y-207744380D02*
X206653333Y-207744380D01*
X206367619Y-208744380D02*
X206367619Y-207744380D01*
X206986666Y-208744380D02*
X206986666Y-207744380D01*
X207367619Y-207744380D01*
X207462857Y-207792000D01*
X207510476Y-207839619D01*
X207558095Y-207934857D01*
X207558095Y-208077714D01*
X207510476Y-208172952D01*
X207462857Y-208220571D01*
X207367619Y-208268190D01*
X206986666Y-208268190D01*
X208129523Y-208172952D02*
X208034285Y-208125333D01*
X207986666Y-208077714D01*
X207939047Y-207982476D01*
X207939047Y-207934857D01*
X207986666Y-207839619D01*
X208034285Y-207792000D01*
X208129523Y-207744380D01*
X208320000Y-207744380D01*
X208415238Y-207792000D01*
X208462857Y-207839619D01*
X208510476Y-207934857D01*
X208510476Y-207982476D01*
X208462857Y-208077714D01*
X208415238Y-208125333D01*
X208320000Y-208172952D01*
X208129523Y-208172952D01*
X208034285Y-208220571D01*
X207986666Y-208268190D01*
X207939047Y-208363428D01*
X207939047Y-208553904D01*
X207986666Y-208649142D01*
X208034285Y-208696761D01*
X208129523Y-208744380D01*
X208320000Y-208744380D01*
X208415238Y-208696761D01*
X208462857Y-208649142D01*
X208510476Y-208553904D01*
X208510476Y-208363428D01*
X208462857Y-208268190D01*
X208415238Y-208220571D01*
X208320000Y-208172952D01*
X209462857Y-208744380D02*
X208891428Y-208744380D01*
X209177142Y-208744380D02*
X209177142Y-207744380D01*
X209081904Y-207887238D01*
X208986666Y-207982476D01*
X208891428Y-208030095D01*
X200031904Y-219844380D02*
X200603333Y-219844380D01*
X200317619Y-220844380D02*
X200317619Y-219844380D01*
X200936666Y-220844380D02*
X200936666Y-219844380D01*
X201317619Y-219844380D01*
X201412857Y-219892000D01*
X201460476Y-219939619D01*
X201508095Y-220034857D01*
X201508095Y-220177714D01*
X201460476Y-220272952D01*
X201412857Y-220320571D01*
X201317619Y-220368190D01*
X200936666Y-220368190D01*
X202079523Y-220272952D02*
X201984285Y-220225333D01*
X201936666Y-220177714D01*
X201889047Y-220082476D01*
X201889047Y-220034857D01*
X201936666Y-219939619D01*
X201984285Y-219892000D01*
X202079523Y-219844380D01*
X202270000Y-219844380D01*
X202365238Y-219892000D01*
X202412857Y-219939619D01*
X202460476Y-220034857D01*
X202460476Y-220082476D01*
X202412857Y-220177714D01*
X202365238Y-220225333D01*
X202270000Y-220272952D01*
X202079523Y-220272952D01*
X201984285Y-220320571D01*
X201936666Y-220368190D01*
X201889047Y-220463428D01*
X201889047Y-220653904D01*
X201936666Y-220749142D01*
X201984285Y-220796761D01*
X202079523Y-220844380D01*
X202270000Y-220844380D01*
X202365238Y-220796761D01*
X202412857Y-220749142D01*
X202460476Y-220653904D01*
X202460476Y-220463428D01*
X202412857Y-220368190D01*
X202365238Y-220320571D01*
X202270000Y-220272952D01*
X202841428Y-219939619D02*
X202889047Y-219892000D01*
X202984285Y-219844380D01*
X203222380Y-219844380D01*
X203317619Y-219892000D01*
X203365238Y-219939619D01*
X203412857Y-220034857D01*
X203412857Y-220130095D01*
X203365238Y-220272952D01*
X202793809Y-220844380D01*
X203412857Y-220844380D01*
X120181904Y-110854380D02*
X120753333Y-110854380D01*
X120467619Y-111854380D02*
X120467619Y-110854380D01*
X121086666Y-111854380D02*
X121086666Y-110854380D01*
X121467619Y-110854380D01*
X121562857Y-110902000D01*
X121610476Y-110949619D01*
X121658095Y-111044857D01*
X121658095Y-111187714D01*
X121610476Y-111282952D01*
X121562857Y-111330571D01*
X121467619Y-111378190D01*
X121086666Y-111378190D01*
X122229523Y-111282952D02*
X122134285Y-111235333D01*
X122086666Y-111187714D01*
X122039047Y-111092476D01*
X122039047Y-111044857D01*
X122086666Y-110949619D01*
X122134285Y-110902000D01*
X122229523Y-110854380D01*
X122420000Y-110854380D01*
X122515238Y-110902000D01*
X122562857Y-110949619D01*
X122610476Y-111044857D01*
X122610476Y-111092476D01*
X122562857Y-111187714D01*
X122515238Y-111235333D01*
X122420000Y-111282952D01*
X122229523Y-111282952D01*
X122134285Y-111330571D01*
X122086666Y-111378190D01*
X122039047Y-111473428D01*
X122039047Y-111663904D01*
X122086666Y-111759142D01*
X122134285Y-111806761D01*
X122229523Y-111854380D01*
X122420000Y-111854380D01*
X122515238Y-111806761D01*
X122562857Y-111759142D01*
X122610476Y-111663904D01*
X122610476Y-111473428D01*
X122562857Y-111378190D01*
X122515238Y-111330571D01*
X122420000Y-111282952D01*
X122943809Y-110854380D02*
X123562857Y-110854380D01*
X123229523Y-111235333D01*
X123372380Y-111235333D01*
X123467619Y-111282952D01*
X123515238Y-111330571D01*
X123562857Y-111425809D01*
X123562857Y-111663904D01*
X123515238Y-111759142D01*
X123467619Y-111806761D01*
X123372380Y-111854380D01*
X123086666Y-111854380D01*
X122991428Y-111806761D01*
X122943809Y-111759142D01*
X158281904Y-95614380D02*
X158853333Y-95614380D01*
X158567619Y-96614380D02*
X158567619Y-95614380D01*
X159186666Y-96614380D02*
X159186666Y-95614380D01*
X159567619Y-95614380D01*
X159662857Y-95662000D01*
X159710476Y-95709619D01*
X159758095Y-95804857D01*
X159758095Y-95947714D01*
X159710476Y-96042952D01*
X159662857Y-96090571D01*
X159567619Y-96138190D01*
X159186666Y-96138190D01*
X160329523Y-96042952D02*
X160234285Y-95995333D01*
X160186666Y-95947714D01*
X160139047Y-95852476D01*
X160139047Y-95804857D01*
X160186666Y-95709619D01*
X160234285Y-95662000D01*
X160329523Y-95614380D01*
X160520000Y-95614380D01*
X160615238Y-95662000D01*
X160662857Y-95709619D01*
X160710476Y-95804857D01*
X160710476Y-95852476D01*
X160662857Y-95947714D01*
X160615238Y-95995333D01*
X160520000Y-96042952D01*
X160329523Y-96042952D01*
X160234285Y-96090571D01*
X160186666Y-96138190D01*
X160139047Y-96233428D01*
X160139047Y-96423904D01*
X160186666Y-96519142D01*
X160234285Y-96566761D01*
X160329523Y-96614380D01*
X160520000Y-96614380D01*
X160615238Y-96566761D01*
X160662857Y-96519142D01*
X160710476Y-96423904D01*
X160710476Y-96233428D01*
X160662857Y-96138190D01*
X160615238Y-96090571D01*
X160520000Y-96042952D01*
X161567619Y-95947714D02*
X161567619Y-96614380D01*
X161329523Y-95566761D02*
X161091428Y-96281047D01*
X161710476Y-96281047D01*
X120181904Y-95614380D02*
X120753333Y-95614380D01*
X120467619Y-96614380D02*
X120467619Y-95614380D01*
X121086666Y-96614380D02*
X121086666Y-95614380D01*
X121467619Y-95614380D01*
X121562857Y-95662000D01*
X121610476Y-95709619D01*
X121658095Y-95804857D01*
X121658095Y-95947714D01*
X121610476Y-96042952D01*
X121562857Y-96090571D01*
X121467619Y-96138190D01*
X121086666Y-96138190D01*
X122229523Y-96042952D02*
X122134285Y-95995333D01*
X122086666Y-95947714D01*
X122039047Y-95852476D01*
X122039047Y-95804857D01*
X122086666Y-95709619D01*
X122134285Y-95662000D01*
X122229523Y-95614380D01*
X122420000Y-95614380D01*
X122515238Y-95662000D01*
X122562857Y-95709619D01*
X122610476Y-95804857D01*
X122610476Y-95852476D01*
X122562857Y-95947714D01*
X122515238Y-95995333D01*
X122420000Y-96042952D01*
X122229523Y-96042952D01*
X122134285Y-96090571D01*
X122086666Y-96138190D01*
X122039047Y-96233428D01*
X122039047Y-96423904D01*
X122086666Y-96519142D01*
X122134285Y-96566761D01*
X122229523Y-96614380D01*
X122420000Y-96614380D01*
X122515238Y-96566761D01*
X122562857Y-96519142D01*
X122610476Y-96423904D01*
X122610476Y-96233428D01*
X122562857Y-96138190D01*
X122515238Y-96090571D01*
X122420000Y-96042952D01*
X123515238Y-95614380D02*
X123039047Y-95614380D01*
X122991428Y-96090571D01*
X123039047Y-96042952D01*
X123134285Y-95995333D01*
X123372380Y-95995333D01*
X123467619Y-96042952D01*
X123515238Y-96090571D01*
X123562857Y-96185809D01*
X123562857Y-96423904D01*
X123515238Y-96519142D01*
X123467619Y-96566761D01*
X123372380Y-96614380D01*
X123134285Y-96614380D01*
X123039047Y-96566761D01*
X122991428Y-96519142D01*
X74461904Y-176894380D02*
X75033333Y-176894380D01*
X74747619Y-177894380D02*
X74747619Y-176894380D01*
X75366666Y-177894380D02*
X75366666Y-176894380D01*
X75747619Y-176894380D01*
X75842857Y-176942000D01*
X75890476Y-176989619D01*
X75938095Y-177084857D01*
X75938095Y-177227714D01*
X75890476Y-177322952D01*
X75842857Y-177370571D01*
X75747619Y-177418190D01*
X75366666Y-177418190D01*
X76509523Y-177322952D02*
X76414285Y-177275333D01*
X76366666Y-177227714D01*
X76319047Y-177132476D01*
X76319047Y-177084857D01*
X76366666Y-176989619D01*
X76414285Y-176942000D01*
X76509523Y-176894380D01*
X76700000Y-176894380D01*
X76795238Y-176942000D01*
X76842857Y-176989619D01*
X76890476Y-177084857D01*
X76890476Y-177132476D01*
X76842857Y-177227714D01*
X76795238Y-177275333D01*
X76700000Y-177322952D01*
X76509523Y-177322952D01*
X76414285Y-177370571D01*
X76366666Y-177418190D01*
X76319047Y-177513428D01*
X76319047Y-177703904D01*
X76366666Y-177799142D01*
X76414285Y-177846761D01*
X76509523Y-177894380D01*
X76700000Y-177894380D01*
X76795238Y-177846761D01*
X76842857Y-177799142D01*
X76890476Y-177703904D01*
X76890476Y-177513428D01*
X76842857Y-177418190D01*
X76795238Y-177370571D01*
X76700000Y-177322952D01*
X77747619Y-176894380D02*
X77557142Y-176894380D01*
X77461904Y-176942000D01*
X77414285Y-176989619D01*
X77319047Y-177132476D01*
X77271428Y-177322952D01*
X77271428Y-177703904D01*
X77319047Y-177799142D01*
X77366666Y-177846761D01*
X77461904Y-177894380D01*
X77652380Y-177894380D01*
X77747619Y-177846761D01*
X77795238Y-177799142D01*
X77842857Y-177703904D01*
X77842857Y-177465809D01*
X77795238Y-177370571D01*
X77747619Y-177322952D01*
X77652380Y-177275333D01*
X77461904Y-177275333D01*
X77366666Y-177322952D01*
X77319047Y-177370571D01*
X77271428Y-177465809D01*
X97321904Y-110854380D02*
X97893333Y-110854380D01*
X97607619Y-111854380D02*
X97607619Y-110854380D01*
X98226666Y-111854380D02*
X98226666Y-110854380D01*
X98607619Y-110854380D01*
X98702857Y-110902000D01*
X98750476Y-110949619D01*
X98798095Y-111044857D01*
X98798095Y-111187714D01*
X98750476Y-111282952D01*
X98702857Y-111330571D01*
X98607619Y-111378190D01*
X98226666Y-111378190D01*
X99369523Y-111282952D02*
X99274285Y-111235333D01*
X99226666Y-111187714D01*
X99179047Y-111092476D01*
X99179047Y-111044857D01*
X99226666Y-110949619D01*
X99274285Y-110902000D01*
X99369523Y-110854380D01*
X99560000Y-110854380D01*
X99655238Y-110902000D01*
X99702857Y-110949619D01*
X99750476Y-111044857D01*
X99750476Y-111092476D01*
X99702857Y-111187714D01*
X99655238Y-111235333D01*
X99560000Y-111282952D01*
X99369523Y-111282952D01*
X99274285Y-111330571D01*
X99226666Y-111378190D01*
X99179047Y-111473428D01*
X99179047Y-111663904D01*
X99226666Y-111759142D01*
X99274285Y-111806761D01*
X99369523Y-111854380D01*
X99560000Y-111854380D01*
X99655238Y-111806761D01*
X99702857Y-111759142D01*
X99750476Y-111663904D01*
X99750476Y-111473428D01*
X99702857Y-111378190D01*
X99655238Y-111330571D01*
X99560000Y-111282952D01*
X100083809Y-110854380D02*
X100750476Y-110854380D01*
X100321904Y-111854380D01*
X127801904Y-110854380D02*
X128373333Y-110854380D01*
X128087619Y-111854380D02*
X128087619Y-110854380D01*
X128706666Y-111854380D02*
X128706666Y-110854380D01*
X129087619Y-110854380D01*
X129182857Y-110902000D01*
X129230476Y-110949619D01*
X129278095Y-111044857D01*
X129278095Y-111187714D01*
X129230476Y-111282952D01*
X129182857Y-111330571D01*
X129087619Y-111378190D01*
X128706666Y-111378190D01*
X129849523Y-111282952D02*
X129754285Y-111235333D01*
X129706666Y-111187714D01*
X129659047Y-111092476D01*
X129659047Y-111044857D01*
X129706666Y-110949619D01*
X129754285Y-110902000D01*
X129849523Y-110854380D01*
X130040000Y-110854380D01*
X130135238Y-110902000D01*
X130182857Y-110949619D01*
X130230476Y-111044857D01*
X130230476Y-111092476D01*
X130182857Y-111187714D01*
X130135238Y-111235333D01*
X130040000Y-111282952D01*
X129849523Y-111282952D01*
X129754285Y-111330571D01*
X129706666Y-111378190D01*
X129659047Y-111473428D01*
X129659047Y-111663904D01*
X129706666Y-111759142D01*
X129754285Y-111806761D01*
X129849523Y-111854380D01*
X130040000Y-111854380D01*
X130135238Y-111806761D01*
X130182857Y-111759142D01*
X130230476Y-111663904D01*
X130230476Y-111473428D01*
X130182857Y-111378190D01*
X130135238Y-111330571D01*
X130040000Y-111282952D01*
X130801904Y-111282952D02*
X130706666Y-111235333D01*
X130659047Y-111187714D01*
X130611428Y-111092476D01*
X130611428Y-111044857D01*
X130659047Y-110949619D01*
X130706666Y-110902000D01*
X130801904Y-110854380D01*
X130992380Y-110854380D01*
X131087619Y-110902000D01*
X131135238Y-110949619D01*
X131182857Y-111044857D01*
X131182857Y-111092476D01*
X131135238Y-111187714D01*
X131087619Y-111235333D01*
X130992380Y-111282952D01*
X130801904Y-111282952D01*
X130706666Y-111330571D01*
X130659047Y-111378190D01*
X130611428Y-111473428D01*
X130611428Y-111663904D01*
X130659047Y-111759142D01*
X130706666Y-111806761D01*
X130801904Y-111854380D01*
X130992380Y-111854380D01*
X131087619Y-111806761D01*
X131135238Y-111759142D01*
X131182857Y-111663904D01*
X131182857Y-111473428D01*
X131135238Y-111378190D01*
X131087619Y-111330571D01*
X130992380Y-111282952D01*
X145581904Y-187054380D02*
X146153333Y-187054380D01*
X145867619Y-188054380D02*
X145867619Y-187054380D01*
X146486666Y-188054380D02*
X146486666Y-187054380D01*
X146867619Y-187054380D01*
X146962857Y-187102000D01*
X147010476Y-187149619D01*
X147058095Y-187244857D01*
X147058095Y-187387714D01*
X147010476Y-187482952D01*
X146962857Y-187530571D01*
X146867619Y-187578190D01*
X146486666Y-187578190D01*
X147629523Y-187482952D02*
X147534285Y-187435333D01*
X147486666Y-187387714D01*
X147439047Y-187292476D01*
X147439047Y-187244857D01*
X147486666Y-187149619D01*
X147534285Y-187102000D01*
X147629523Y-187054380D01*
X147820000Y-187054380D01*
X147915238Y-187102000D01*
X147962857Y-187149619D01*
X148010476Y-187244857D01*
X148010476Y-187292476D01*
X147962857Y-187387714D01*
X147915238Y-187435333D01*
X147820000Y-187482952D01*
X147629523Y-187482952D01*
X147534285Y-187530571D01*
X147486666Y-187578190D01*
X147439047Y-187673428D01*
X147439047Y-187863904D01*
X147486666Y-187959142D01*
X147534285Y-188006761D01*
X147629523Y-188054380D01*
X147820000Y-188054380D01*
X147915238Y-188006761D01*
X147962857Y-187959142D01*
X148010476Y-187863904D01*
X148010476Y-187673428D01*
X147962857Y-187578190D01*
X147915238Y-187530571D01*
X147820000Y-187482952D01*
X148486666Y-188054380D02*
X148677142Y-188054380D01*
X148772380Y-188006761D01*
X148820000Y-187959142D01*
X148915238Y-187816285D01*
X148962857Y-187625809D01*
X148962857Y-187244857D01*
X148915238Y-187149619D01*
X148867619Y-187102000D01*
X148772380Y-187054380D01*
X148581904Y-187054380D01*
X148486666Y-187102000D01*
X148439047Y-187149619D01*
X148391428Y-187244857D01*
X148391428Y-187482952D01*
X148439047Y-187578190D01*
X148486666Y-187625809D01*
X148581904Y-187673428D01*
X148772380Y-187673428D01*
X148867619Y-187625809D01*
X148915238Y-187578190D01*
X148962857Y-187482952D01*
X89701904Y-95614380D02*
X90273333Y-95614380D01*
X89987619Y-96614380D02*
X89987619Y-95614380D01*
X90606666Y-96614380D02*
X90606666Y-95614380D01*
X90987619Y-95614380D01*
X91082857Y-95662000D01*
X91130476Y-95709619D01*
X91178095Y-95804857D01*
X91178095Y-95947714D01*
X91130476Y-96042952D01*
X91082857Y-96090571D01*
X90987619Y-96138190D01*
X90606666Y-96138190D01*
X91654285Y-96614380D02*
X91844761Y-96614380D01*
X91940000Y-96566761D01*
X91987619Y-96519142D01*
X92082857Y-96376285D01*
X92130476Y-96185809D01*
X92130476Y-95804857D01*
X92082857Y-95709619D01*
X92035238Y-95662000D01*
X91940000Y-95614380D01*
X91749523Y-95614380D01*
X91654285Y-95662000D01*
X91606666Y-95709619D01*
X91559047Y-95804857D01*
X91559047Y-96042952D01*
X91606666Y-96138190D01*
X91654285Y-96185809D01*
X91749523Y-96233428D01*
X91940000Y-96233428D01*
X92035238Y-96185809D01*
X92082857Y-96138190D01*
X92130476Y-96042952D01*
X92749523Y-95614380D02*
X92844761Y-95614380D01*
X92940000Y-95662000D01*
X92987619Y-95709619D01*
X93035238Y-95804857D01*
X93082857Y-95995333D01*
X93082857Y-96233428D01*
X93035238Y-96423904D01*
X92987619Y-96519142D01*
X92940000Y-96566761D01*
X92844761Y-96614380D01*
X92749523Y-96614380D01*
X92654285Y-96566761D01*
X92606666Y-96519142D01*
X92559047Y-96423904D01*
X92511428Y-96233428D01*
X92511428Y-95995333D01*
X92559047Y-95804857D01*
X92606666Y-95709619D01*
X92654285Y-95662000D01*
X92749523Y-95614380D01*
X33821904Y-176894380D02*
X34393333Y-176894380D01*
X34107619Y-177894380D02*
X34107619Y-176894380D01*
X34726666Y-177894380D02*
X34726666Y-176894380D01*
X35107619Y-176894380D01*
X35202857Y-176942000D01*
X35250476Y-176989619D01*
X35298095Y-177084857D01*
X35298095Y-177227714D01*
X35250476Y-177322952D01*
X35202857Y-177370571D01*
X35107619Y-177418190D01*
X34726666Y-177418190D01*
X35774285Y-177894380D02*
X35964761Y-177894380D01*
X36060000Y-177846761D01*
X36107619Y-177799142D01*
X36202857Y-177656285D01*
X36250476Y-177465809D01*
X36250476Y-177084857D01*
X36202857Y-176989619D01*
X36155238Y-176942000D01*
X36060000Y-176894380D01*
X35869523Y-176894380D01*
X35774285Y-176942000D01*
X35726666Y-176989619D01*
X35679047Y-177084857D01*
X35679047Y-177322952D01*
X35726666Y-177418190D01*
X35774285Y-177465809D01*
X35869523Y-177513428D01*
X36060000Y-177513428D01*
X36155238Y-177465809D01*
X36202857Y-177418190D01*
X36250476Y-177322952D01*
X37202857Y-177894380D02*
X36631428Y-177894380D01*
X36917142Y-177894380D02*
X36917142Y-176894380D01*
X36821904Y-177037238D01*
X36726666Y-177132476D01*
X36631428Y-177180095D01*
X33821904Y-182944380D02*
X34393333Y-182944380D01*
X34107619Y-183944380D02*
X34107619Y-182944380D01*
X34726666Y-183944380D02*
X34726666Y-182944380D01*
X35107619Y-182944380D01*
X35202857Y-182992000D01*
X35250476Y-183039619D01*
X35298095Y-183134857D01*
X35298095Y-183277714D01*
X35250476Y-183372952D01*
X35202857Y-183420571D01*
X35107619Y-183468190D01*
X34726666Y-183468190D01*
X35774285Y-183944380D02*
X35964761Y-183944380D01*
X36060000Y-183896761D01*
X36107619Y-183849142D01*
X36202857Y-183706285D01*
X36250476Y-183515809D01*
X36250476Y-183134857D01*
X36202857Y-183039619D01*
X36155238Y-182992000D01*
X36060000Y-182944380D01*
X35869523Y-182944380D01*
X35774285Y-182992000D01*
X35726666Y-183039619D01*
X35679047Y-183134857D01*
X35679047Y-183372952D01*
X35726666Y-183468190D01*
X35774285Y-183515809D01*
X35869523Y-183563428D01*
X36060000Y-183563428D01*
X36155238Y-183515809D01*
X36202857Y-183468190D01*
X36250476Y-183372952D01*
X36631428Y-183039619D02*
X36679047Y-182992000D01*
X36774285Y-182944380D01*
X37012380Y-182944380D01*
X37107619Y-182992000D01*
X37155238Y-183039619D01*
X37202857Y-183134857D01*
X37202857Y-183230095D01*
X37155238Y-183372952D01*
X36583809Y-183944380D01*
X37202857Y-183944380D01*
X39871904Y-176894380D02*
X40443333Y-176894380D01*
X40157619Y-177894380D02*
X40157619Y-176894380D01*
X40776666Y-177894380D02*
X40776666Y-176894380D01*
X41157619Y-176894380D01*
X41252857Y-176942000D01*
X41300476Y-176989619D01*
X41348095Y-177084857D01*
X41348095Y-177227714D01*
X41300476Y-177322952D01*
X41252857Y-177370571D01*
X41157619Y-177418190D01*
X40776666Y-177418190D01*
X41824285Y-177894380D02*
X42014761Y-177894380D01*
X42110000Y-177846761D01*
X42157619Y-177799142D01*
X42252857Y-177656285D01*
X42300476Y-177465809D01*
X42300476Y-177084857D01*
X42252857Y-176989619D01*
X42205238Y-176942000D01*
X42110000Y-176894380D01*
X41919523Y-176894380D01*
X41824285Y-176942000D01*
X41776666Y-176989619D01*
X41729047Y-177084857D01*
X41729047Y-177322952D01*
X41776666Y-177418190D01*
X41824285Y-177465809D01*
X41919523Y-177513428D01*
X42110000Y-177513428D01*
X42205238Y-177465809D01*
X42252857Y-177418190D01*
X42300476Y-177322952D01*
X42633809Y-176894380D02*
X43252857Y-176894380D01*
X42919523Y-177275333D01*
X43062380Y-177275333D01*
X43157619Y-177322952D01*
X43205238Y-177370571D01*
X43252857Y-177465809D01*
X43252857Y-177703904D01*
X43205238Y-177799142D01*
X43157619Y-177846761D01*
X43062380Y-177894380D01*
X42776666Y-177894380D01*
X42681428Y-177846761D01*
X42633809Y-177799142D01*
X39871904Y-182944380D02*
X40443333Y-182944380D01*
X40157619Y-183944380D02*
X40157619Y-182944380D01*
X40776666Y-183944380D02*
X40776666Y-182944380D01*
X41157619Y-182944380D01*
X41252857Y-182992000D01*
X41300476Y-183039619D01*
X41348095Y-183134857D01*
X41348095Y-183277714D01*
X41300476Y-183372952D01*
X41252857Y-183420571D01*
X41157619Y-183468190D01*
X40776666Y-183468190D01*
X41824285Y-183944380D02*
X42014761Y-183944380D01*
X42110000Y-183896761D01*
X42157619Y-183849142D01*
X42252857Y-183706285D01*
X42300476Y-183515809D01*
X42300476Y-183134857D01*
X42252857Y-183039619D01*
X42205238Y-182992000D01*
X42110000Y-182944380D01*
X41919523Y-182944380D01*
X41824285Y-182992000D01*
X41776666Y-183039619D01*
X41729047Y-183134857D01*
X41729047Y-183372952D01*
X41776666Y-183468190D01*
X41824285Y-183515809D01*
X41919523Y-183563428D01*
X42110000Y-183563428D01*
X42205238Y-183515809D01*
X42252857Y-183468190D01*
X42300476Y-183372952D01*
X43157619Y-183277714D02*
X43157619Y-183944380D01*
X42919523Y-182896761D02*
X42681428Y-183611047D01*
X43300476Y-183611047D01*
X45921904Y-176894380D02*
X46493333Y-176894380D01*
X46207619Y-177894380D02*
X46207619Y-176894380D01*
X46826666Y-177894380D02*
X46826666Y-176894380D01*
X47207619Y-176894380D01*
X47302857Y-176942000D01*
X47350476Y-176989619D01*
X47398095Y-177084857D01*
X47398095Y-177227714D01*
X47350476Y-177322952D01*
X47302857Y-177370571D01*
X47207619Y-177418190D01*
X46826666Y-177418190D01*
X47874285Y-177894380D02*
X48064761Y-177894380D01*
X48160000Y-177846761D01*
X48207619Y-177799142D01*
X48302857Y-177656285D01*
X48350476Y-177465809D01*
X48350476Y-177084857D01*
X48302857Y-176989619D01*
X48255238Y-176942000D01*
X48160000Y-176894380D01*
X47969523Y-176894380D01*
X47874285Y-176942000D01*
X47826666Y-176989619D01*
X47779047Y-177084857D01*
X47779047Y-177322952D01*
X47826666Y-177418190D01*
X47874285Y-177465809D01*
X47969523Y-177513428D01*
X48160000Y-177513428D01*
X48255238Y-177465809D01*
X48302857Y-177418190D01*
X48350476Y-177322952D01*
X49255238Y-176894380D02*
X48779047Y-176894380D01*
X48731428Y-177370571D01*
X48779047Y-177322952D01*
X48874285Y-177275333D01*
X49112380Y-177275333D01*
X49207619Y-177322952D01*
X49255238Y-177370571D01*
X49302857Y-177465809D01*
X49302857Y-177703904D01*
X49255238Y-177799142D01*
X49207619Y-177846761D01*
X49112380Y-177894380D01*
X48874285Y-177894380D01*
X48779047Y-177846761D01*
X48731428Y-177799142D01*
X45921904Y-182944380D02*
X46493333Y-182944380D01*
X46207619Y-183944380D02*
X46207619Y-182944380D01*
X46826666Y-183944380D02*
X46826666Y-182944380D01*
X47207619Y-182944380D01*
X47302857Y-182992000D01*
X47350476Y-183039619D01*
X47398095Y-183134857D01*
X47398095Y-183277714D01*
X47350476Y-183372952D01*
X47302857Y-183420571D01*
X47207619Y-183468190D01*
X46826666Y-183468190D01*
X47874285Y-183944380D02*
X48064761Y-183944380D01*
X48160000Y-183896761D01*
X48207619Y-183849142D01*
X48302857Y-183706285D01*
X48350476Y-183515809D01*
X48350476Y-183134857D01*
X48302857Y-183039619D01*
X48255238Y-182992000D01*
X48160000Y-182944380D01*
X47969523Y-182944380D01*
X47874285Y-182992000D01*
X47826666Y-183039619D01*
X47779047Y-183134857D01*
X47779047Y-183372952D01*
X47826666Y-183468190D01*
X47874285Y-183515809D01*
X47969523Y-183563428D01*
X48160000Y-183563428D01*
X48255238Y-183515809D01*
X48302857Y-183468190D01*
X48350476Y-183372952D01*
X49207619Y-182944380D02*
X49017142Y-182944380D01*
X48921904Y-182992000D01*
X48874285Y-183039619D01*
X48779047Y-183182476D01*
X48731428Y-183372952D01*
X48731428Y-183753904D01*
X48779047Y-183849142D01*
X48826666Y-183896761D01*
X48921904Y-183944380D01*
X49112380Y-183944380D01*
X49207619Y-183896761D01*
X49255238Y-183849142D01*
X49302857Y-183753904D01*
X49302857Y-183515809D01*
X49255238Y-183420571D01*
X49207619Y-183372952D01*
X49112380Y-183325333D01*
X48921904Y-183325333D01*
X48826666Y-183372952D01*
X48779047Y-183420571D01*
X48731428Y-183515809D01*
X158281904Y-110854380D02*
X158853333Y-110854380D01*
X158567619Y-111854380D02*
X158567619Y-110854380D01*
X159186666Y-111854380D02*
X159186666Y-110854380D01*
X159567619Y-110854380D01*
X159662857Y-110902000D01*
X159710476Y-110949619D01*
X159758095Y-111044857D01*
X159758095Y-111187714D01*
X159710476Y-111282952D01*
X159662857Y-111330571D01*
X159567619Y-111378190D01*
X159186666Y-111378190D01*
X160234285Y-111854380D02*
X160424761Y-111854380D01*
X160520000Y-111806761D01*
X160567619Y-111759142D01*
X160662857Y-111616285D01*
X160710476Y-111425809D01*
X160710476Y-111044857D01*
X160662857Y-110949619D01*
X160615238Y-110902000D01*
X160520000Y-110854380D01*
X160329523Y-110854380D01*
X160234285Y-110902000D01*
X160186666Y-110949619D01*
X160139047Y-111044857D01*
X160139047Y-111282952D01*
X160186666Y-111378190D01*
X160234285Y-111425809D01*
X160329523Y-111473428D01*
X160520000Y-111473428D01*
X160615238Y-111425809D01*
X160662857Y-111378190D01*
X160710476Y-111282952D01*
X161043809Y-110854380D02*
X161710476Y-110854380D01*
X161281904Y-111854380D01*
X51971904Y-182944380D02*
X52543333Y-182944380D01*
X52257619Y-183944380D02*
X52257619Y-182944380D01*
X52876666Y-183944380D02*
X52876666Y-182944380D01*
X53257619Y-182944380D01*
X53352857Y-182992000D01*
X53400476Y-183039619D01*
X53448095Y-183134857D01*
X53448095Y-183277714D01*
X53400476Y-183372952D01*
X53352857Y-183420571D01*
X53257619Y-183468190D01*
X52876666Y-183468190D01*
X53924285Y-183944380D02*
X54114761Y-183944380D01*
X54210000Y-183896761D01*
X54257619Y-183849142D01*
X54352857Y-183706285D01*
X54400476Y-183515809D01*
X54400476Y-183134857D01*
X54352857Y-183039619D01*
X54305238Y-182992000D01*
X54210000Y-182944380D01*
X54019523Y-182944380D01*
X53924285Y-182992000D01*
X53876666Y-183039619D01*
X53829047Y-183134857D01*
X53829047Y-183372952D01*
X53876666Y-183468190D01*
X53924285Y-183515809D01*
X54019523Y-183563428D01*
X54210000Y-183563428D01*
X54305238Y-183515809D01*
X54352857Y-183468190D01*
X54400476Y-183372952D01*
X54971904Y-183372952D02*
X54876666Y-183325333D01*
X54829047Y-183277714D01*
X54781428Y-183182476D01*
X54781428Y-183134857D01*
X54829047Y-183039619D01*
X54876666Y-182992000D01*
X54971904Y-182944380D01*
X55162380Y-182944380D01*
X55257619Y-182992000D01*
X55305238Y-183039619D01*
X55352857Y-183134857D01*
X55352857Y-183182476D01*
X55305238Y-183277714D01*
X55257619Y-183325333D01*
X55162380Y-183372952D01*
X54971904Y-183372952D01*
X54876666Y-183420571D01*
X54829047Y-183468190D01*
X54781428Y-183563428D01*
X54781428Y-183753904D01*
X54829047Y-183849142D01*
X54876666Y-183896761D01*
X54971904Y-183944380D01*
X55162380Y-183944380D01*
X55257619Y-183896761D01*
X55305238Y-183849142D01*
X55352857Y-183753904D01*
X55352857Y-183563428D01*
X55305238Y-183468190D01*
X55257619Y-183420571D01*
X55162380Y-183372952D01*
X165525714Y-81722380D02*
X166097142Y-81722380D01*
X165811428Y-82722380D02*
X165811428Y-81722380D01*
X166430476Y-82722380D02*
X166430476Y-81722380D01*
X166811428Y-81722380D01*
X166906666Y-81770000D01*
X166954285Y-81817619D01*
X167001904Y-81912857D01*
X167001904Y-82055714D01*
X166954285Y-82150952D01*
X166906666Y-82198571D01*
X166811428Y-82246190D01*
X166430476Y-82246190D01*
X167954285Y-82722380D02*
X167382857Y-82722380D01*
X167668571Y-82722380D02*
X167668571Y-81722380D01*
X167573333Y-81865238D01*
X167478095Y-81960476D01*
X167382857Y-82008095D01*
X168573333Y-81722380D02*
X168668571Y-81722380D01*
X168763809Y-81770000D01*
X168811428Y-81817619D01*
X168859047Y-81912857D01*
X168906666Y-82103333D01*
X168906666Y-82341428D01*
X168859047Y-82531904D01*
X168811428Y-82627142D01*
X168763809Y-82674761D01*
X168668571Y-82722380D01*
X168573333Y-82722380D01*
X168478095Y-82674761D01*
X168430476Y-82627142D01*
X168382857Y-82531904D01*
X168335238Y-82341428D01*
X168335238Y-82103333D01*
X168382857Y-81912857D01*
X168430476Y-81817619D01*
X168478095Y-81770000D01*
X168573333Y-81722380D01*
X169240000Y-81722380D02*
X169906666Y-81722380D01*
X169478095Y-82722380D01*
X112185714Y-81722380D02*
X112757142Y-81722380D01*
X112471428Y-82722380D02*
X112471428Y-81722380D01*
X113090476Y-82722380D02*
X113090476Y-81722380D01*
X113471428Y-81722380D01*
X113566666Y-81770000D01*
X113614285Y-81817619D01*
X113661904Y-81912857D01*
X113661904Y-82055714D01*
X113614285Y-82150952D01*
X113566666Y-82198571D01*
X113471428Y-82246190D01*
X113090476Y-82246190D01*
X114614285Y-82722380D02*
X114042857Y-82722380D01*
X114328571Y-82722380D02*
X114328571Y-81722380D01*
X114233333Y-81865238D01*
X114138095Y-81960476D01*
X114042857Y-82008095D01*
X115233333Y-81722380D02*
X115328571Y-81722380D01*
X115423809Y-81770000D01*
X115471428Y-81817619D01*
X115519047Y-81912857D01*
X115566666Y-82103333D01*
X115566666Y-82341428D01*
X115519047Y-82531904D01*
X115471428Y-82627142D01*
X115423809Y-82674761D01*
X115328571Y-82722380D01*
X115233333Y-82722380D01*
X115138095Y-82674761D01*
X115090476Y-82627142D01*
X115042857Y-82531904D01*
X114995238Y-82341428D01*
X114995238Y-82103333D01*
X115042857Y-81912857D01*
X115090476Y-81817619D01*
X115138095Y-81770000D01*
X115233333Y-81722380D01*
X116138095Y-82150952D02*
X116042857Y-82103333D01*
X115995238Y-82055714D01*
X115947619Y-81960476D01*
X115947619Y-81912857D01*
X115995238Y-81817619D01*
X116042857Y-81770000D01*
X116138095Y-81722380D01*
X116328571Y-81722380D01*
X116423809Y-81770000D01*
X116471428Y-81817619D01*
X116519047Y-81912857D01*
X116519047Y-81960476D01*
X116471428Y-82055714D01*
X116423809Y-82103333D01*
X116328571Y-82150952D01*
X116138095Y-82150952D01*
X116042857Y-82198571D01*
X115995238Y-82246190D01*
X115947619Y-82341428D01*
X115947619Y-82531904D01*
X115995238Y-82627142D01*
X116042857Y-82674761D01*
X116138095Y-82722380D01*
X116328571Y-82722380D01*
X116423809Y-82674761D01*
X116471428Y-82627142D01*
X116519047Y-82531904D01*
X116519047Y-82341428D01*
X116471428Y-82246190D01*
X116423809Y-82198571D01*
X116328571Y-82150952D01*
X97321904Y-197214380D02*
X97893333Y-197214380D01*
X97607619Y-198214380D02*
X97607619Y-197214380D01*
X98226666Y-198214380D02*
X98226666Y-197214380D01*
X98607619Y-197214380D01*
X98702857Y-197262000D01*
X98750476Y-197309619D01*
X98798095Y-197404857D01*
X98798095Y-197547714D01*
X98750476Y-197642952D01*
X98702857Y-197690571D01*
X98607619Y-197738190D01*
X98226666Y-197738190D01*
X99274285Y-198214380D02*
X99464761Y-198214380D01*
X99560000Y-198166761D01*
X99607619Y-198119142D01*
X99702857Y-197976285D01*
X99750476Y-197785809D01*
X99750476Y-197404857D01*
X99702857Y-197309619D01*
X99655238Y-197262000D01*
X99560000Y-197214380D01*
X99369523Y-197214380D01*
X99274285Y-197262000D01*
X99226666Y-197309619D01*
X99179047Y-197404857D01*
X99179047Y-197642952D01*
X99226666Y-197738190D01*
X99274285Y-197785809D01*
X99369523Y-197833428D01*
X99560000Y-197833428D01*
X99655238Y-197785809D01*
X99702857Y-197738190D01*
X99750476Y-197642952D01*
X100226666Y-198214380D02*
X100417142Y-198214380D01*
X100512380Y-198166761D01*
X100560000Y-198119142D01*
X100655238Y-197976285D01*
X100702857Y-197785809D01*
X100702857Y-197404857D01*
X100655238Y-197309619D01*
X100607619Y-197262000D01*
X100512380Y-197214380D01*
X100321904Y-197214380D01*
X100226666Y-197262000D01*
X100179047Y-197309619D01*
X100131428Y-197404857D01*
X100131428Y-197642952D01*
X100179047Y-197738190D01*
X100226666Y-197785809D01*
X100321904Y-197833428D01*
X100512380Y-197833428D01*
X100607619Y-197785809D01*
X100655238Y-197738190D01*
X100702857Y-197642952D01*
X96845714Y-203264380D02*
X97417142Y-203264380D01*
X97131428Y-204264380D02*
X97131428Y-203264380D01*
X97750476Y-204264380D02*
X97750476Y-203264380D01*
X98131428Y-203264380D01*
X98226666Y-203312000D01*
X98274285Y-203359619D01*
X98321904Y-203454857D01*
X98321904Y-203597714D01*
X98274285Y-203692952D01*
X98226666Y-203740571D01*
X98131428Y-203788190D01*
X97750476Y-203788190D01*
X99274285Y-204264380D02*
X98702857Y-204264380D01*
X98988571Y-204264380D02*
X98988571Y-203264380D01*
X98893333Y-203407238D01*
X98798095Y-203502476D01*
X98702857Y-203550095D01*
X99893333Y-203264380D02*
X99988571Y-203264380D01*
X100083809Y-203312000D01*
X100131428Y-203359619D01*
X100179047Y-203454857D01*
X100226666Y-203645333D01*
X100226666Y-203883428D01*
X100179047Y-204073904D01*
X100131428Y-204169142D01*
X100083809Y-204216761D01*
X99988571Y-204264380D01*
X99893333Y-204264380D01*
X99798095Y-204216761D01*
X99750476Y-204169142D01*
X99702857Y-204073904D01*
X99655238Y-203883428D01*
X99655238Y-203645333D01*
X99702857Y-203454857D01*
X99750476Y-203359619D01*
X99798095Y-203312000D01*
X99893333Y-203264380D01*
X100845714Y-203264380D02*
X100940952Y-203264380D01*
X101036190Y-203312000D01*
X101083809Y-203359619D01*
X101131428Y-203454857D01*
X101179047Y-203645333D01*
X101179047Y-203883428D01*
X101131428Y-204073904D01*
X101083809Y-204169142D01*
X101036190Y-204216761D01*
X100940952Y-204264380D01*
X100845714Y-204264380D01*
X100750476Y-204216761D01*
X100702857Y-204169142D01*
X100655238Y-204073904D01*
X100607619Y-203883428D01*
X100607619Y-203645333D01*
X100655238Y-203454857D01*
X100702857Y-203359619D01*
X100750476Y-203312000D01*
X100845714Y-203264380D01*
X102895714Y-197214380D02*
X103467142Y-197214380D01*
X103181428Y-198214380D02*
X103181428Y-197214380D01*
X103800476Y-198214380D02*
X103800476Y-197214380D01*
X104181428Y-197214380D01*
X104276666Y-197262000D01*
X104324285Y-197309619D01*
X104371904Y-197404857D01*
X104371904Y-197547714D01*
X104324285Y-197642952D01*
X104276666Y-197690571D01*
X104181428Y-197738190D01*
X103800476Y-197738190D01*
X105324285Y-198214380D02*
X104752857Y-198214380D01*
X105038571Y-198214380D02*
X105038571Y-197214380D01*
X104943333Y-197357238D01*
X104848095Y-197452476D01*
X104752857Y-197500095D01*
X105943333Y-197214380D02*
X106038571Y-197214380D01*
X106133809Y-197262000D01*
X106181428Y-197309619D01*
X106229047Y-197404857D01*
X106276666Y-197595333D01*
X106276666Y-197833428D01*
X106229047Y-198023904D01*
X106181428Y-198119142D01*
X106133809Y-198166761D01*
X106038571Y-198214380D01*
X105943333Y-198214380D01*
X105848095Y-198166761D01*
X105800476Y-198119142D01*
X105752857Y-198023904D01*
X105705238Y-197833428D01*
X105705238Y-197595333D01*
X105752857Y-197404857D01*
X105800476Y-197309619D01*
X105848095Y-197262000D01*
X105943333Y-197214380D01*
X107229047Y-198214380D02*
X106657619Y-198214380D01*
X106943333Y-198214380D02*
X106943333Y-197214380D01*
X106848095Y-197357238D01*
X106752857Y-197452476D01*
X106657619Y-197500095D01*
X102895714Y-203264380D02*
X103467142Y-203264380D01*
X103181428Y-204264380D02*
X103181428Y-203264380D01*
X103800476Y-204264380D02*
X103800476Y-203264380D01*
X104181428Y-203264380D01*
X104276666Y-203312000D01*
X104324285Y-203359619D01*
X104371904Y-203454857D01*
X104371904Y-203597714D01*
X104324285Y-203692952D01*
X104276666Y-203740571D01*
X104181428Y-203788190D01*
X103800476Y-203788190D01*
X105324285Y-204264380D02*
X104752857Y-204264380D01*
X105038571Y-204264380D02*
X105038571Y-203264380D01*
X104943333Y-203407238D01*
X104848095Y-203502476D01*
X104752857Y-203550095D01*
X105943333Y-203264380D02*
X106038571Y-203264380D01*
X106133809Y-203312000D01*
X106181428Y-203359619D01*
X106229047Y-203454857D01*
X106276666Y-203645333D01*
X106276666Y-203883428D01*
X106229047Y-204073904D01*
X106181428Y-204169142D01*
X106133809Y-204216761D01*
X106038571Y-204264380D01*
X105943333Y-204264380D01*
X105848095Y-204216761D01*
X105800476Y-204169142D01*
X105752857Y-204073904D01*
X105705238Y-203883428D01*
X105705238Y-203645333D01*
X105752857Y-203454857D01*
X105800476Y-203359619D01*
X105848095Y-203312000D01*
X105943333Y-203264380D01*
X106657619Y-203359619D02*
X106705238Y-203312000D01*
X106800476Y-203264380D01*
X107038571Y-203264380D01*
X107133809Y-203312000D01*
X107181428Y-203359619D01*
X107229047Y-203454857D01*
X107229047Y-203550095D01*
X107181428Y-203692952D01*
X106610000Y-204264380D01*
X107229047Y-204264380D01*
X108945714Y-197214380D02*
X109517142Y-197214380D01*
X109231428Y-198214380D02*
X109231428Y-197214380D01*
X109850476Y-198214380D02*
X109850476Y-197214380D01*
X110231428Y-197214380D01*
X110326666Y-197262000D01*
X110374285Y-197309619D01*
X110421904Y-197404857D01*
X110421904Y-197547714D01*
X110374285Y-197642952D01*
X110326666Y-197690571D01*
X110231428Y-197738190D01*
X109850476Y-197738190D01*
X111374285Y-198214380D02*
X110802857Y-198214380D01*
X111088571Y-198214380D02*
X111088571Y-197214380D01*
X110993333Y-197357238D01*
X110898095Y-197452476D01*
X110802857Y-197500095D01*
X111993333Y-197214380D02*
X112088571Y-197214380D01*
X112183809Y-197262000D01*
X112231428Y-197309619D01*
X112279047Y-197404857D01*
X112326666Y-197595333D01*
X112326666Y-197833428D01*
X112279047Y-198023904D01*
X112231428Y-198119142D01*
X112183809Y-198166761D01*
X112088571Y-198214380D01*
X111993333Y-198214380D01*
X111898095Y-198166761D01*
X111850476Y-198119142D01*
X111802857Y-198023904D01*
X111755238Y-197833428D01*
X111755238Y-197595333D01*
X111802857Y-197404857D01*
X111850476Y-197309619D01*
X111898095Y-197262000D01*
X111993333Y-197214380D01*
X112660000Y-197214380D02*
X113279047Y-197214380D01*
X112945714Y-197595333D01*
X113088571Y-197595333D01*
X113183809Y-197642952D01*
X113231428Y-197690571D01*
X113279047Y-197785809D01*
X113279047Y-198023904D01*
X113231428Y-198119142D01*
X113183809Y-198166761D01*
X113088571Y-198214380D01*
X112802857Y-198214380D01*
X112707619Y-198166761D01*
X112660000Y-198119142D01*
X108945714Y-203264380D02*
X109517142Y-203264380D01*
X109231428Y-204264380D02*
X109231428Y-203264380D01*
X109850476Y-204264380D02*
X109850476Y-203264380D01*
X110231428Y-203264380D01*
X110326666Y-203312000D01*
X110374285Y-203359619D01*
X110421904Y-203454857D01*
X110421904Y-203597714D01*
X110374285Y-203692952D01*
X110326666Y-203740571D01*
X110231428Y-203788190D01*
X109850476Y-203788190D01*
X111374285Y-204264380D02*
X110802857Y-204264380D01*
X111088571Y-204264380D02*
X111088571Y-203264380D01*
X110993333Y-203407238D01*
X110898095Y-203502476D01*
X110802857Y-203550095D01*
X111993333Y-203264380D02*
X112088571Y-203264380D01*
X112183809Y-203312000D01*
X112231428Y-203359619D01*
X112279047Y-203454857D01*
X112326666Y-203645333D01*
X112326666Y-203883428D01*
X112279047Y-204073904D01*
X112231428Y-204169142D01*
X112183809Y-204216761D01*
X112088571Y-204264380D01*
X111993333Y-204264380D01*
X111898095Y-204216761D01*
X111850476Y-204169142D01*
X111802857Y-204073904D01*
X111755238Y-203883428D01*
X111755238Y-203645333D01*
X111802857Y-203454857D01*
X111850476Y-203359619D01*
X111898095Y-203312000D01*
X111993333Y-203264380D01*
X113183809Y-203597714D02*
X113183809Y-204264380D01*
X112945714Y-203216761D02*
X112707619Y-203931047D01*
X113326666Y-203931047D01*
X114995714Y-197214380D02*
X115567142Y-197214380D01*
X115281428Y-198214380D02*
X115281428Y-197214380D01*
X115900476Y-198214380D02*
X115900476Y-197214380D01*
X116281428Y-197214380D01*
X116376666Y-197262000D01*
X116424285Y-197309619D01*
X116471904Y-197404857D01*
X116471904Y-197547714D01*
X116424285Y-197642952D01*
X116376666Y-197690571D01*
X116281428Y-197738190D01*
X115900476Y-197738190D01*
X117424285Y-198214380D02*
X116852857Y-198214380D01*
X117138571Y-198214380D02*
X117138571Y-197214380D01*
X117043333Y-197357238D01*
X116948095Y-197452476D01*
X116852857Y-197500095D01*
X118043333Y-197214380D02*
X118138571Y-197214380D01*
X118233809Y-197262000D01*
X118281428Y-197309619D01*
X118329047Y-197404857D01*
X118376666Y-197595333D01*
X118376666Y-197833428D01*
X118329047Y-198023904D01*
X118281428Y-198119142D01*
X118233809Y-198166761D01*
X118138571Y-198214380D01*
X118043333Y-198214380D01*
X117948095Y-198166761D01*
X117900476Y-198119142D01*
X117852857Y-198023904D01*
X117805238Y-197833428D01*
X117805238Y-197595333D01*
X117852857Y-197404857D01*
X117900476Y-197309619D01*
X117948095Y-197262000D01*
X118043333Y-197214380D01*
X119281428Y-197214380D02*
X118805238Y-197214380D01*
X118757619Y-197690571D01*
X118805238Y-197642952D01*
X118900476Y-197595333D01*
X119138571Y-197595333D01*
X119233809Y-197642952D01*
X119281428Y-197690571D01*
X119329047Y-197785809D01*
X119329047Y-198023904D01*
X119281428Y-198119142D01*
X119233809Y-198166761D01*
X119138571Y-198214380D01*
X118900476Y-198214380D01*
X118805238Y-198166761D01*
X118757619Y-198119142D01*
X114995714Y-203264380D02*
X115567142Y-203264380D01*
X115281428Y-204264380D02*
X115281428Y-203264380D01*
X115900476Y-204264380D02*
X115900476Y-203264380D01*
X116281428Y-203264380D01*
X116376666Y-203312000D01*
X116424285Y-203359619D01*
X116471904Y-203454857D01*
X116471904Y-203597714D01*
X116424285Y-203692952D01*
X116376666Y-203740571D01*
X116281428Y-203788190D01*
X115900476Y-203788190D01*
X117424285Y-204264380D02*
X116852857Y-204264380D01*
X117138571Y-204264380D02*
X117138571Y-203264380D01*
X117043333Y-203407238D01*
X116948095Y-203502476D01*
X116852857Y-203550095D01*
X118043333Y-203264380D02*
X118138571Y-203264380D01*
X118233809Y-203312000D01*
X118281428Y-203359619D01*
X118329047Y-203454857D01*
X118376666Y-203645333D01*
X118376666Y-203883428D01*
X118329047Y-204073904D01*
X118281428Y-204169142D01*
X118233809Y-204216761D01*
X118138571Y-204264380D01*
X118043333Y-204264380D01*
X117948095Y-204216761D01*
X117900476Y-204169142D01*
X117852857Y-204073904D01*
X117805238Y-203883428D01*
X117805238Y-203645333D01*
X117852857Y-203454857D01*
X117900476Y-203359619D01*
X117948095Y-203312000D01*
X118043333Y-203264380D01*
X119233809Y-203264380D02*
X119043333Y-203264380D01*
X118948095Y-203312000D01*
X118900476Y-203359619D01*
X118805238Y-203502476D01*
X118757619Y-203692952D01*
X118757619Y-204073904D01*
X118805238Y-204169142D01*
X118852857Y-204216761D01*
X118948095Y-204264380D01*
X119138571Y-204264380D01*
X119233809Y-204216761D01*
X119281428Y-204169142D01*
X119329047Y-204073904D01*
X119329047Y-203835809D01*
X119281428Y-203740571D01*
X119233809Y-203692952D01*
X119138571Y-203645333D01*
X118948095Y-203645333D01*
X118852857Y-203692952D01*
X118805238Y-203740571D01*
X118757619Y-203835809D01*
X113455714Y-56322380D02*
X114027142Y-56322380D01*
X113741428Y-57322380D02*
X113741428Y-56322380D01*
X114360476Y-57322380D02*
X114360476Y-56322380D01*
X114741428Y-56322380D01*
X114836666Y-56370000D01*
X114884285Y-56417619D01*
X114931904Y-56512857D01*
X114931904Y-56655714D01*
X114884285Y-56750952D01*
X114836666Y-56798571D01*
X114741428Y-56846190D01*
X114360476Y-56846190D01*
X115884285Y-57322380D02*
X115312857Y-57322380D01*
X115598571Y-57322380D02*
X115598571Y-56322380D01*
X115503333Y-56465238D01*
X115408095Y-56560476D01*
X115312857Y-56608095D01*
X116503333Y-56322380D02*
X116598571Y-56322380D01*
X116693809Y-56370000D01*
X116741428Y-56417619D01*
X116789047Y-56512857D01*
X116836666Y-56703333D01*
X116836666Y-56941428D01*
X116789047Y-57131904D01*
X116741428Y-57227142D01*
X116693809Y-57274761D01*
X116598571Y-57322380D01*
X116503333Y-57322380D01*
X116408095Y-57274761D01*
X116360476Y-57227142D01*
X116312857Y-57131904D01*
X116265238Y-56941428D01*
X116265238Y-56703333D01*
X116312857Y-56512857D01*
X116360476Y-56417619D01*
X116408095Y-56370000D01*
X116503333Y-56322380D01*
X117312857Y-57322380D02*
X117503333Y-57322380D01*
X117598571Y-57274761D01*
X117646190Y-57227142D01*
X117741428Y-57084285D01*
X117789047Y-56893809D01*
X117789047Y-56512857D01*
X117741428Y-56417619D01*
X117693809Y-56370000D01*
X117598571Y-56322380D01*
X117408095Y-56322380D01*
X117312857Y-56370000D01*
X117265238Y-56417619D01*
X117217619Y-56512857D01*
X117217619Y-56750952D01*
X117265238Y-56846190D01*
X117312857Y-56893809D01*
X117408095Y-56941428D01*
X117598571Y-56941428D01*
X117693809Y-56893809D01*
X117741428Y-56846190D01*
X117789047Y-56750952D01*
X165525714Y-56322380D02*
X166097142Y-56322380D01*
X165811428Y-57322380D02*
X165811428Y-56322380D01*
X166430476Y-57322380D02*
X166430476Y-56322380D01*
X166811428Y-56322380D01*
X166906666Y-56370000D01*
X166954285Y-56417619D01*
X167001904Y-56512857D01*
X167001904Y-56655714D01*
X166954285Y-56750952D01*
X166906666Y-56798571D01*
X166811428Y-56846190D01*
X166430476Y-56846190D01*
X167954285Y-57322380D02*
X167382857Y-57322380D01*
X167668571Y-57322380D02*
X167668571Y-56322380D01*
X167573333Y-56465238D01*
X167478095Y-56560476D01*
X167382857Y-56608095D01*
X168906666Y-57322380D02*
X168335238Y-57322380D01*
X168620952Y-57322380D02*
X168620952Y-56322380D01*
X168525714Y-56465238D01*
X168430476Y-56560476D01*
X168335238Y-56608095D01*
X169525714Y-56322380D02*
X169620952Y-56322380D01*
X169716190Y-56370000D01*
X169763809Y-56417619D01*
X169811428Y-56512857D01*
X169859047Y-56703333D01*
X169859047Y-56941428D01*
X169811428Y-57131904D01*
X169763809Y-57227142D01*
X169716190Y-57274761D01*
X169620952Y-57322380D01*
X169525714Y-57322380D01*
X169430476Y-57274761D01*
X169382857Y-57227142D01*
X169335238Y-57131904D01*
X169287619Y-56941428D01*
X169287619Y-56703333D01*
X169335238Y-56512857D01*
X169382857Y-56417619D01*
X169430476Y-56370000D01*
X169525714Y-56322380D01*
X138855714Y-76642380D02*
X139427142Y-76642380D01*
X139141428Y-77642380D02*
X139141428Y-76642380D01*
X139760476Y-77642380D02*
X139760476Y-76642380D01*
X140141428Y-76642380D01*
X140236666Y-76690000D01*
X140284285Y-76737619D01*
X140331904Y-76832857D01*
X140331904Y-76975714D01*
X140284285Y-77070952D01*
X140236666Y-77118571D01*
X140141428Y-77166190D01*
X139760476Y-77166190D01*
X141284285Y-77642380D02*
X140712857Y-77642380D01*
X140998571Y-77642380D02*
X140998571Y-76642380D01*
X140903333Y-76785238D01*
X140808095Y-76880476D01*
X140712857Y-76928095D01*
X142236666Y-77642380D02*
X141665238Y-77642380D01*
X141950952Y-77642380D02*
X141950952Y-76642380D01*
X141855714Y-76785238D01*
X141760476Y-76880476D01*
X141665238Y-76928095D01*
X143189047Y-77642380D02*
X142617619Y-77642380D01*
X142903333Y-77642380D02*
X142903333Y-76642380D01*
X142808095Y-76785238D01*
X142712857Y-76880476D01*
X142617619Y-76928095D01*
X140125714Y-61402380D02*
X140697142Y-61402380D01*
X140411428Y-62402380D02*
X140411428Y-61402380D01*
X141030476Y-62402380D02*
X141030476Y-61402380D01*
X141411428Y-61402380D01*
X141506666Y-61450000D01*
X141554285Y-61497619D01*
X141601904Y-61592857D01*
X141601904Y-61735714D01*
X141554285Y-61830952D01*
X141506666Y-61878571D01*
X141411428Y-61926190D01*
X141030476Y-61926190D01*
X142554285Y-62402380D02*
X141982857Y-62402380D01*
X142268571Y-62402380D02*
X142268571Y-61402380D01*
X142173333Y-61545238D01*
X142078095Y-61640476D01*
X141982857Y-61688095D01*
X143506666Y-62402380D02*
X142935238Y-62402380D01*
X143220952Y-62402380D02*
X143220952Y-61402380D01*
X143125714Y-61545238D01*
X143030476Y-61640476D01*
X142935238Y-61688095D01*
X143887619Y-61497619D02*
X143935238Y-61450000D01*
X144030476Y-61402380D01*
X144268571Y-61402380D01*
X144363809Y-61450000D01*
X144411428Y-61497619D01*
X144459047Y-61592857D01*
X144459047Y-61688095D01*
X144411428Y-61830952D01*
X143840000Y-62402380D01*
X144459047Y-62402380D01*
D11*
X210620000Y-91440000D02*
X209620000Y-92440000D01*
X195820000Y-83940000D02*
X210820000Y-83940000D01*
X210820000Y-83940000D02*
X210820000Y-98940000D01*
X210620000Y-91440000D02*
X209620000Y-90440000D01*
X210820000Y-98940000D02*
X195820000Y-98940000D01*
X195820000Y-98940000D02*
X195820000Y-83940000D01*
X71120000Y-98940000D02*
X71120000Y-83940000D01*
X71120000Y-83940000D02*
X86120000Y-83940000D01*
X71320000Y-91440000D02*
X72320000Y-90440000D01*
X86120000Y-83940000D02*
X86120000Y-98940000D01*
X86120000Y-98940000D02*
X71120000Y-98940000D01*
X71320000Y-91440000D02*
X72320000Y-92440000D01*
X315775000Y-115390000D02*
X315775000Y-118290000D01*
X310970000Y-113485000D02*
X313870000Y-113485000D01*
X309065000Y-115390000D02*
X309065000Y-118290000D01*
X310970000Y-120195000D02*
X313870000Y-120195000D01*
X84635000Y-105230000D02*
X84635000Y-108130000D01*
X79830000Y-110035000D02*
X82730000Y-110035000D01*
X79830000Y-103325000D02*
X82730000Y-103325000D01*
X77925000Y-105230000D02*
X77925000Y-108130000D01*
X310420000Y-132080000D02*
X309920000Y-132330000D01*
X309920000Y-131830000D02*
X310420000Y-132080000D01*
X309920000Y-132330000D02*
X309920000Y-131830000D01*
X78700000Y-124710000D02*
X78200000Y-124460000D01*
X78700000Y-124210000D02*
X78700000Y-124710000D01*
X78200000Y-124460000D02*
X78700000Y-124210000D01*
X192700000Y-93640000D02*
X188300000Y-93640000D01*
X188300000Y-93640000D02*
X188300000Y-89240000D01*
X188300000Y-89240000D02*
X192700000Y-89240000D01*
X192700000Y-89240000D02*
X192700000Y-93640000D01*
X89240000Y-89240000D02*
X93640000Y-89240000D01*
X93640000Y-93640000D02*
X89240000Y-93640000D01*
X89240000Y-93640000D02*
X89240000Y-89240000D01*
X93640000Y-89240000D02*
X93640000Y-93640000D01*
X162900000Y-154600000D02*
X162900000Y-150200000D01*
X167300000Y-154600000D02*
X162900000Y-154600000D01*
X167300000Y-150200000D02*
X167300000Y-154600000D01*
X162900000Y-150200000D02*
X167300000Y-150200000D01*
X93640000Y-104480000D02*
X93640000Y-108880000D01*
X93640000Y-108880000D02*
X89240000Y-108880000D01*
X89240000Y-108880000D02*
X89240000Y-104480000D01*
X89240000Y-104480000D02*
X93640000Y-104480000D01*
X182540000Y-165440000D02*
X182540000Y-169840000D01*
X182540000Y-169840000D02*
X178140000Y-169840000D01*
X178140000Y-169840000D02*
X178140000Y-165440000D01*
X178140000Y-165440000D02*
X182540000Y-165440000D01*
X89240000Y-126660000D02*
X89240000Y-122260000D01*
X93640000Y-126660000D02*
X89240000Y-126660000D01*
X89240000Y-122260000D02*
X93640000Y-122260000D01*
X93640000Y-122260000D02*
X93640000Y-126660000D01*
X104480000Y-104480000D02*
X108880000Y-104480000D01*
X104480000Y-108880000D02*
X104480000Y-104480000D01*
X108880000Y-104480000D02*
X108880000Y-108880000D01*
X108880000Y-108880000D02*
X104480000Y-108880000D01*
X108880000Y-112100000D02*
X108880000Y-116500000D01*
X104480000Y-112100000D02*
X108880000Y-112100000D01*
X108880000Y-116500000D02*
X104480000Y-116500000D01*
X104480000Y-116500000D02*
X104480000Y-112100000D01*
X89240000Y-112100000D02*
X93640000Y-112100000D01*
X93640000Y-116500000D02*
X89240000Y-116500000D01*
X93640000Y-112100000D02*
X93640000Y-116500000D01*
X89240000Y-116500000D02*
X89240000Y-112100000D01*
X101260000Y-104480000D02*
X101260000Y-108880000D01*
X96860000Y-108880000D02*
X96860000Y-104480000D01*
X96860000Y-104480000D02*
X101260000Y-104480000D01*
X101260000Y-108880000D02*
X96860000Y-108880000D01*
X139360000Y-104480000D02*
X139360000Y-108880000D01*
X139360000Y-108880000D02*
X134960000Y-108880000D01*
X134960000Y-108880000D02*
X134960000Y-104480000D01*
X134960000Y-104480000D02*
X139360000Y-104480000D01*
X134960000Y-93640000D02*
X134960000Y-89240000D01*
X139360000Y-93640000D02*
X134960000Y-93640000D01*
X134960000Y-89240000D02*
X139360000Y-89240000D01*
X139360000Y-89240000D02*
X139360000Y-93640000D01*
X157140000Y-192700000D02*
X152740000Y-192700000D01*
X152740000Y-188300000D02*
X157140000Y-188300000D01*
X157140000Y-188300000D02*
X157140000Y-192700000D01*
X152740000Y-192700000D02*
X152740000Y-188300000D01*
X134960000Y-112100000D02*
X139360000Y-112100000D01*
X139360000Y-116500000D02*
X134960000Y-116500000D01*
X139360000Y-112100000D02*
X139360000Y-116500000D01*
X134960000Y-116500000D02*
X134960000Y-112100000D01*
X142580000Y-116500000D02*
X142580000Y-112100000D01*
X142580000Y-112100000D02*
X146980000Y-112100000D01*
X146980000Y-116500000D02*
X142580000Y-116500000D01*
X146980000Y-112100000D02*
X146980000Y-116500000D01*
X165440000Y-96860000D02*
X169840000Y-96860000D01*
X165440000Y-101260000D02*
X165440000Y-96860000D01*
X169840000Y-96860000D02*
X169840000Y-101260000D01*
X169840000Y-101260000D02*
X165440000Y-101260000D01*
X157140000Y-180680000D02*
X157140000Y-185080000D01*
X152740000Y-185080000D02*
X152740000Y-180680000D01*
X152740000Y-180680000D02*
X157140000Y-180680000D01*
X157140000Y-185080000D02*
X152740000Y-185080000D01*
X173060000Y-104480000D02*
X177460000Y-104480000D01*
X177460000Y-108880000D02*
X173060000Y-108880000D01*
X173060000Y-108880000D02*
X173060000Y-104480000D01*
X177460000Y-104480000D02*
X177460000Y-108880000D01*
X185080000Y-108880000D02*
X180680000Y-108880000D01*
X180680000Y-108880000D02*
X180680000Y-104480000D01*
X180680000Y-104480000D02*
X185080000Y-104480000D01*
X185080000Y-104480000D02*
X185080000Y-108880000D01*
X127340000Y-96860000D02*
X131740000Y-96860000D01*
X131740000Y-96860000D02*
X131740000Y-101260000D01*
X127340000Y-101260000D02*
X127340000Y-96860000D01*
X131740000Y-101260000D02*
X127340000Y-101260000D01*
X139360000Y-101260000D02*
X134960000Y-101260000D01*
X134960000Y-101260000D02*
X134960000Y-96860000D01*
X139360000Y-96860000D02*
X139360000Y-101260000D01*
X134960000Y-96860000D02*
X139360000Y-96860000D01*
X74000000Y-195690000D02*
X78400000Y-195690000D01*
X78400000Y-195690000D02*
X78400000Y-200090000D01*
X74000000Y-200090000D02*
X74000000Y-195690000D01*
X78400000Y-200090000D02*
X74000000Y-200090000D01*
X165440000Y-116500000D02*
X165440000Y-112100000D01*
X169840000Y-112100000D02*
X169840000Y-116500000D01*
X165440000Y-112100000D02*
X169840000Y-112100000D01*
X169840000Y-116500000D02*
X165440000Y-116500000D01*
X180680000Y-116500000D02*
X180680000Y-112100000D01*
X180680000Y-112100000D02*
X185080000Y-112100000D01*
X185080000Y-112100000D02*
X185080000Y-116500000D01*
X185080000Y-116500000D02*
X180680000Y-116500000D01*
X192700000Y-81620000D02*
X192700000Y-86020000D01*
X188300000Y-81620000D02*
X192700000Y-81620000D01*
X192700000Y-86020000D02*
X188300000Y-86020000D01*
X188300000Y-86020000D02*
X188300000Y-81620000D01*
X89240000Y-81620000D02*
X93640000Y-81620000D01*
X93640000Y-81620000D02*
X93640000Y-86020000D01*
X93640000Y-86020000D02*
X89240000Y-86020000D01*
X89240000Y-86020000D02*
X89240000Y-81620000D01*
X142580000Y-93640000D02*
X142580000Y-89240000D01*
X146980000Y-89240000D02*
X146980000Y-93640000D01*
X146980000Y-93640000D02*
X142580000Y-93640000D01*
X142580000Y-89240000D02*
X146980000Y-89240000D01*
X177460000Y-112100000D02*
X177460000Y-116500000D01*
X173060000Y-112100000D02*
X177460000Y-112100000D01*
X173060000Y-116500000D02*
X173060000Y-112100000D01*
X177460000Y-116500000D02*
X173060000Y-116500000D01*
X136220000Y-211820000D02*
X131820000Y-211820000D01*
X136220000Y-207420000D02*
X136220000Y-211820000D01*
X131820000Y-207420000D02*
X136220000Y-207420000D01*
X131820000Y-211820000D02*
X131820000Y-207420000D01*
X96860000Y-81620000D02*
X101260000Y-81620000D01*
X101260000Y-86020000D02*
X96860000Y-86020000D01*
X101260000Y-81620000D02*
X101260000Y-86020000D01*
X96860000Y-86020000D02*
X96860000Y-81620000D01*
X154600000Y-81620000D02*
X154600000Y-86020000D01*
X154600000Y-86020000D02*
X150200000Y-86020000D01*
X150200000Y-81620000D02*
X154600000Y-81620000D01*
X150200000Y-86020000D02*
X150200000Y-81620000D01*
X116500000Y-81620000D02*
X116500000Y-86020000D01*
X112100000Y-81620000D02*
X116500000Y-81620000D01*
X112100000Y-86020000D02*
X112100000Y-81620000D01*
X116500000Y-86020000D02*
X112100000Y-86020000D01*
X142580000Y-101260000D02*
X142580000Y-96860000D01*
X142580000Y-96860000D02*
X146980000Y-96860000D01*
X146980000Y-96860000D02*
X146980000Y-101260000D01*
X146980000Y-101260000D02*
X142580000Y-101260000D01*
X131820000Y-217870000D02*
X131820000Y-213470000D01*
X136220000Y-217870000D02*
X131820000Y-217870000D01*
X131820000Y-213470000D02*
X136220000Y-213470000D01*
X136220000Y-213470000D02*
X136220000Y-217870000D01*
X96860000Y-89240000D02*
X101260000Y-89240000D01*
X96860000Y-93640000D02*
X96860000Y-89240000D01*
X101260000Y-89240000D02*
X101260000Y-93640000D01*
X101260000Y-93640000D02*
X96860000Y-93640000D01*
X108880000Y-81620000D02*
X108880000Y-86020000D01*
X104480000Y-86020000D02*
X104480000Y-81620000D01*
X108880000Y-86020000D02*
X104480000Y-86020000D01*
X104480000Y-81620000D02*
X108880000Y-81620000D01*
X157820000Y-81620000D02*
X162220000Y-81620000D01*
X162220000Y-81620000D02*
X162220000Y-86020000D01*
X162220000Y-86020000D02*
X157820000Y-86020000D01*
X157820000Y-86020000D02*
X157820000Y-81620000D01*
X124120000Y-86020000D02*
X119720000Y-86020000D01*
X119720000Y-81620000D02*
X124120000Y-81620000D01*
X119720000Y-86020000D02*
X119720000Y-81620000D01*
X124120000Y-81620000D02*
X124120000Y-86020000D01*
X146980000Y-108880000D02*
X142580000Y-108880000D01*
X146980000Y-104480000D02*
X146980000Y-108880000D01*
X142580000Y-108880000D02*
X142580000Y-104480000D01*
X142580000Y-104480000D02*
X146980000Y-104480000D01*
X101260000Y-96860000D02*
X101260000Y-101260000D01*
X101260000Y-101260000D02*
X96860000Y-101260000D01*
X96860000Y-96860000D02*
X101260000Y-96860000D01*
X96860000Y-101260000D02*
X96860000Y-96860000D01*
X108880000Y-89240000D02*
X108880000Y-93640000D01*
X104480000Y-89240000D02*
X108880000Y-89240000D01*
X108880000Y-93640000D02*
X104480000Y-93640000D01*
X104480000Y-93640000D02*
X104480000Y-89240000D01*
X179770000Y-213390000D02*
X175370000Y-213390000D01*
X175370000Y-213390000D02*
X175370000Y-208990000D01*
X175370000Y-208990000D02*
X179770000Y-208990000D01*
X179770000Y-208990000D02*
X179770000Y-213390000D01*
X169840000Y-86020000D02*
X165440000Y-86020000D01*
X169840000Y-81620000D02*
X169840000Y-86020000D01*
X165440000Y-81620000D02*
X169840000Y-81620000D01*
X165440000Y-86020000D02*
X165440000Y-81620000D01*
X131740000Y-86020000D02*
X127340000Y-86020000D01*
X127340000Y-81620000D02*
X131740000Y-81620000D01*
X127340000Y-86020000D02*
X127340000Y-81620000D01*
X131740000Y-81620000D02*
X131740000Y-86020000D01*
X173060000Y-93640000D02*
X173060000Y-89240000D01*
X173060000Y-89240000D02*
X177460000Y-89240000D01*
X177460000Y-93640000D02*
X173060000Y-93640000D01*
X177460000Y-89240000D02*
X177460000Y-93640000D01*
X104480000Y-101260000D02*
X104480000Y-96860000D01*
X104480000Y-96860000D02*
X108880000Y-96860000D01*
X108880000Y-96860000D02*
X108880000Y-101260000D01*
X108880000Y-101260000D02*
X104480000Y-101260000D01*
X179770000Y-219440000D02*
X175370000Y-219440000D01*
X179770000Y-215040000D02*
X179770000Y-219440000D01*
X175370000Y-215040000D02*
X179770000Y-215040000D01*
X175370000Y-219440000D02*
X175370000Y-215040000D01*
X181420000Y-208990000D02*
X185820000Y-208990000D01*
X185820000Y-208990000D02*
X185820000Y-213390000D01*
X185820000Y-213390000D02*
X181420000Y-213390000D01*
X181420000Y-213390000D02*
X181420000Y-208990000D01*
X177460000Y-86020000D02*
X173060000Y-86020000D01*
X177460000Y-81620000D02*
X177460000Y-86020000D01*
X173060000Y-81620000D02*
X177460000Y-81620000D01*
X173060000Y-86020000D02*
X173060000Y-81620000D01*
X139360000Y-86020000D02*
X134960000Y-86020000D01*
X134960000Y-81620000D02*
X139360000Y-81620000D01*
X134960000Y-86020000D02*
X134960000Y-81620000D01*
X139360000Y-81620000D02*
X139360000Y-86020000D01*
X177460000Y-101260000D02*
X173060000Y-101260000D01*
X173060000Y-96860000D02*
X177460000Y-96860000D01*
X177460000Y-96860000D02*
X177460000Y-101260000D01*
X173060000Y-101260000D02*
X173060000Y-96860000D01*
X179770000Y-225490000D02*
X175370000Y-225490000D01*
X175370000Y-221090000D02*
X179770000Y-221090000D01*
X175370000Y-225490000D02*
X175370000Y-221090000D01*
X179770000Y-221090000D02*
X179770000Y-225490000D01*
X185820000Y-219440000D02*
X181420000Y-219440000D01*
X185820000Y-215040000D02*
X185820000Y-219440000D01*
X181420000Y-219440000D02*
X181420000Y-215040000D01*
X181420000Y-215040000D02*
X185820000Y-215040000D01*
X191870000Y-208990000D02*
X191870000Y-213390000D01*
X187470000Y-208990000D02*
X191870000Y-208990000D01*
X187470000Y-213390000D02*
X187470000Y-208990000D01*
X191870000Y-213390000D02*
X187470000Y-213390000D01*
X180680000Y-81620000D02*
X185080000Y-81620000D01*
X185080000Y-81620000D02*
X185080000Y-86020000D01*
X180680000Y-86020000D02*
X180680000Y-81620000D01*
X185080000Y-86020000D02*
X180680000Y-86020000D01*
X142580000Y-86020000D02*
X142580000Y-81620000D01*
X146980000Y-86020000D02*
X142580000Y-86020000D01*
X146980000Y-81620000D02*
X146980000Y-86020000D01*
X142580000Y-81620000D02*
X146980000Y-81620000D01*
X180680000Y-93640000D02*
X180680000Y-89240000D01*
X185080000Y-93640000D02*
X180680000Y-93640000D01*
X185080000Y-89240000D02*
X185080000Y-93640000D01*
X180680000Y-89240000D02*
X185080000Y-89240000D01*
X185820000Y-225490000D02*
X181420000Y-225490000D01*
X181420000Y-225490000D02*
X181420000Y-221090000D01*
X181420000Y-221090000D02*
X185820000Y-221090000D01*
X185820000Y-221090000D02*
X185820000Y-225490000D01*
X187470000Y-215040000D02*
X191870000Y-215040000D01*
X191870000Y-219440000D02*
X187470000Y-219440000D01*
X187470000Y-219440000D02*
X187470000Y-215040000D01*
X191870000Y-215040000D02*
X191870000Y-219440000D01*
X193520000Y-213390000D02*
X193520000Y-208990000D01*
X193520000Y-208990000D02*
X197920000Y-208990000D01*
X197920000Y-213390000D02*
X193520000Y-213390000D01*
X197920000Y-208990000D02*
X197920000Y-213390000D01*
X188300000Y-101260000D02*
X188300000Y-96860000D01*
X192700000Y-101260000D02*
X188300000Y-101260000D01*
X188300000Y-96860000D02*
X192700000Y-96860000D01*
X192700000Y-96860000D02*
X192700000Y-101260000D01*
X185080000Y-96860000D02*
X185080000Y-101260000D01*
X185080000Y-101260000D02*
X180680000Y-101260000D01*
X180680000Y-96860000D02*
X185080000Y-96860000D01*
X180680000Y-101260000D02*
X180680000Y-96860000D01*
X187470000Y-225490000D02*
X187470000Y-221090000D01*
X191870000Y-221090000D02*
X191870000Y-225490000D01*
X191870000Y-225490000D02*
X187470000Y-225490000D01*
X187470000Y-221090000D02*
X191870000Y-221090000D01*
X197920000Y-215040000D02*
X197920000Y-219440000D01*
X193520000Y-219440000D02*
X193520000Y-215040000D01*
X193520000Y-215040000D02*
X197920000Y-215040000D01*
X197920000Y-219440000D02*
X193520000Y-219440000D01*
X199570000Y-208990000D02*
X203970000Y-208990000D01*
X203970000Y-213390000D02*
X199570000Y-213390000D01*
X203970000Y-208990000D02*
X203970000Y-213390000D01*
X199570000Y-213390000D02*
X199570000Y-208990000D01*
X210020000Y-207340000D02*
X205620000Y-207340000D01*
X210020000Y-202940000D02*
X210020000Y-207340000D01*
X205620000Y-207340000D02*
X205620000Y-202940000D01*
X205620000Y-202940000D02*
X210020000Y-202940000D01*
X197920000Y-221090000D02*
X197920000Y-225490000D01*
X193520000Y-225490000D02*
X193520000Y-221090000D01*
X193520000Y-221090000D02*
X197920000Y-221090000D01*
X197920000Y-225490000D02*
X193520000Y-225490000D01*
X203970000Y-219440000D02*
X199570000Y-219440000D01*
X203970000Y-215040000D02*
X203970000Y-219440000D01*
X199570000Y-219440000D02*
X199570000Y-215040000D01*
X199570000Y-215040000D02*
X203970000Y-215040000D01*
X205620000Y-213390000D02*
X205620000Y-208990000D01*
X205620000Y-208990000D02*
X210020000Y-208990000D01*
X210020000Y-208990000D02*
X210020000Y-213390000D01*
X210020000Y-213390000D02*
X205620000Y-213390000D01*
X203970000Y-221090000D02*
X203970000Y-225490000D01*
X203970000Y-225490000D02*
X199570000Y-225490000D01*
X199570000Y-225490000D02*
X199570000Y-221090000D01*
X199570000Y-221090000D02*
X203970000Y-221090000D01*
X119720000Y-116500000D02*
X119720000Y-112100000D01*
X124120000Y-116500000D02*
X119720000Y-116500000D01*
X124120000Y-112100000D02*
X124120000Y-116500000D01*
X119720000Y-112100000D02*
X124120000Y-112100000D01*
X157820000Y-101260000D02*
X157820000Y-96860000D01*
X157820000Y-96860000D02*
X162220000Y-96860000D01*
X162220000Y-101260000D02*
X157820000Y-101260000D01*
X162220000Y-96860000D02*
X162220000Y-101260000D01*
X119720000Y-101260000D02*
X119720000Y-96860000D01*
X124120000Y-96860000D02*
X124120000Y-101260000D01*
X124120000Y-101260000D02*
X119720000Y-101260000D01*
X119720000Y-96860000D02*
X124120000Y-96860000D01*
X74000000Y-178140000D02*
X78400000Y-178140000D01*
X78400000Y-182540000D02*
X74000000Y-182540000D01*
X74000000Y-182540000D02*
X74000000Y-178140000D01*
X78400000Y-178140000D02*
X78400000Y-182540000D01*
X96860000Y-116500000D02*
X96860000Y-112100000D01*
X101260000Y-112100000D02*
X101260000Y-116500000D01*
X101260000Y-116500000D02*
X96860000Y-116500000D01*
X96860000Y-112100000D02*
X101260000Y-112100000D01*
X127340000Y-112100000D02*
X131740000Y-112100000D01*
X127340000Y-116500000D02*
X127340000Y-112100000D01*
X131740000Y-112100000D02*
X131740000Y-116500000D01*
X131740000Y-116500000D02*
X127340000Y-116500000D01*
X149520000Y-188300000D02*
X149520000Y-192700000D01*
X145120000Y-188300000D02*
X149520000Y-188300000D01*
X149520000Y-192700000D02*
X145120000Y-192700000D01*
X145120000Y-192700000D02*
X145120000Y-188300000D01*
X89240000Y-96860000D02*
X93640000Y-96860000D01*
X93640000Y-101260000D02*
X89240000Y-101260000D01*
X93640000Y-96860000D02*
X93640000Y-101260000D01*
X89240000Y-101260000D02*
X89240000Y-96860000D01*
X33360000Y-178140000D02*
X37760000Y-178140000D01*
X37760000Y-182540000D02*
X33360000Y-182540000D01*
X37760000Y-178140000D02*
X37760000Y-182540000D01*
X33360000Y-182540000D02*
X33360000Y-178140000D01*
X37760000Y-188590000D02*
X33360000Y-188590000D01*
X37760000Y-184190000D02*
X37760000Y-188590000D01*
X33360000Y-188590000D02*
X33360000Y-184190000D01*
X33360000Y-184190000D02*
X37760000Y-184190000D01*
X43810000Y-178140000D02*
X43810000Y-182540000D01*
X39410000Y-178140000D02*
X43810000Y-178140000D01*
X43810000Y-182540000D02*
X39410000Y-182540000D01*
X39410000Y-182540000D02*
X39410000Y-178140000D01*
X43810000Y-188590000D02*
X39410000Y-188590000D01*
X43810000Y-184190000D02*
X43810000Y-188590000D01*
X39410000Y-188590000D02*
X39410000Y-184190000D01*
X39410000Y-184190000D02*
X43810000Y-184190000D01*
X45460000Y-182540000D02*
X45460000Y-178140000D01*
X49860000Y-182540000D02*
X45460000Y-182540000D01*
X45460000Y-178140000D02*
X49860000Y-178140000D01*
X49860000Y-178140000D02*
X49860000Y-182540000D01*
X49860000Y-184190000D02*
X49860000Y-188590000D01*
X49860000Y-188590000D02*
X45460000Y-188590000D01*
X45460000Y-184190000D02*
X49860000Y-184190000D01*
X45460000Y-188590000D02*
X45460000Y-184190000D01*
X157820000Y-112100000D02*
X162220000Y-112100000D01*
X162220000Y-116500000D02*
X157820000Y-116500000D01*
X157820000Y-116500000D02*
X157820000Y-112100000D01*
X162220000Y-112100000D02*
X162220000Y-116500000D01*
X51510000Y-184190000D02*
X55910000Y-184190000D01*
X51510000Y-188590000D02*
X51510000Y-184190000D01*
X55910000Y-188590000D02*
X51510000Y-188590000D01*
X55910000Y-184190000D02*
X55910000Y-188590000D01*
X142580000Y-76270000D02*
X142580000Y-78670000D01*
X142580000Y-78670000D02*
X192700000Y-78670000D01*
X192700000Y-76270000D02*
X192700000Y-78670000D01*
X142580000Y-76270000D02*
X192700000Y-76270000D01*
X89240000Y-78670000D02*
X139360000Y-78670000D01*
X139360000Y-76270000D02*
X139360000Y-78670000D01*
X89240000Y-76270000D02*
X89240000Y-78670000D01*
X89240000Y-76270000D02*
X139360000Y-76270000D01*
X101260000Y-202860000D02*
X96860000Y-202860000D01*
X101260000Y-198460000D02*
X101260000Y-202860000D01*
X96860000Y-202860000D02*
X96860000Y-198460000D01*
X96860000Y-198460000D02*
X101260000Y-198460000D01*
X96860000Y-208910000D02*
X96860000Y-204510000D01*
X101260000Y-208910000D02*
X96860000Y-208910000D01*
X96860000Y-204510000D02*
X101260000Y-204510000D01*
X101260000Y-204510000D02*
X101260000Y-208910000D01*
X102910000Y-198460000D02*
X107310000Y-198460000D01*
X102910000Y-202860000D02*
X102910000Y-198460000D01*
X107310000Y-198460000D02*
X107310000Y-202860000D01*
X107310000Y-202860000D02*
X102910000Y-202860000D01*
X107310000Y-208910000D02*
X102910000Y-208910000D01*
X107310000Y-204510000D02*
X107310000Y-208910000D01*
X102910000Y-208910000D02*
X102910000Y-204510000D01*
X102910000Y-204510000D02*
X107310000Y-204510000D01*
X108960000Y-202860000D02*
X108960000Y-198460000D01*
X113360000Y-202860000D02*
X108960000Y-202860000D01*
X113360000Y-198460000D02*
X113360000Y-202860000D01*
X108960000Y-198460000D02*
X113360000Y-198460000D01*
X113360000Y-208910000D02*
X108960000Y-208910000D01*
X113360000Y-204510000D02*
X113360000Y-208910000D01*
X108960000Y-204510000D02*
X113360000Y-204510000D01*
X108960000Y-208910000D02*
X108960000Y-204510000D01*
X115010000Y-202860000D02*
X115010000Y-198460000D01*
X119410000Y-198460000D02*
X119410000Y-202860000D01*
X119410000Y-202860000D02*
X115010000Y-202860000D01*
X115010000Y-198460000D02*
X119410000Y-198460000D01*
X115010000Y-208910000D02*
X115010000Y-204510000D01*
X119410000Y-204510000D02*
X119410000Y-208910000D01*
X119410000Y-208910000D02*
X115010000Y-208910000D01*
X115010000Y-204510000D02*
X119410000Y-204510000D01*
X90510000Y-53270000D02*
X140630000Y-53270000D01*
X90510000Y-50870000D02*
X90510000Y-53270000D01*
X140630000Y-50870000D02*
X140630000Y-53270000D01*
X90510000Y-50870000D02*
X140630000Y-50870000D01*
X142580000Y-50870000D02*
X142580000Y-53270000D01*
X192700000Y-50870000D02*
X192700000Y-53270000D01*
X142580000Y-53270000D02*
X192700000Y-53270000D01*
X142580000Y-50870000D02*
X192700000Y-50870000D01*
X192700000Y-71190000D02*
X192700000Y-73590000D01*
X89240000Y-71190000D02*
X89240000Y-73590000D01*
X89240000Y-71190000D02*
X192700000Y-71190000D01*
X89240000Y-73590000D02*
X192700000Y-73590000D01*
X90510000Y-55950000D02*
X193970000Y-55950000D01*
X90510000Y-58350000D02*
X193970000Y-58350000D01*
X90510000Y-55950000D02*
X90510000Y-58350000D01*
X193970000Y-55950000D02*
X193970000Y-58350000D01*
M02*
